<?xml version="1.0" standalone="no"?>
<!DOCTYPE svg PUBLIC "-//W3C//DTD SVG 1.1//EN" "http://www.w3.org/Graphics/SVG/1.1/DTD/svg11.dtd" >
<svg xmlns="http://www.w3.org/2000/svg">
<metadata></metadata>
<defs>
<font id="kiroregular" horiz-adv-x="1083" >
<font-face units-per-em="2048" ascent="1649" descent="-399" />
<missing-glyph horiz-adv-x="440" />
<glyph unicode="&#xfb01;" horiz-adv-x="1060" d="M37 905v70q0 39 39 39h106v90q0 170 92.5 262t264.5 92q146 0 262 -72q30 -18 12 -53l-35 -61q-16 -32 -55 -10q-76 49 -174 49q-96 0 -146.5 -54.5t-50.5 -154.5v-88h535q39 0 39 -39v-936q0 -39 -39 -39h-92q-39 0 -39 39v827h-404v-827q0 -39 -39 -39h-92 q-39 0 -39 39v827h-106q-39 0 -39 39z" />
<glyph unicode="&#xfb02;" horiz-adv-x="1081" d="M37 905v70q0 39 39 39h106v80q0 172 95.5 268t267.5 96q124 0 233 -53q3 29 37 29h92q39 0 39 -39v-1356q0 -39 -39 -39h-92q-39 0 -39 39v1190q-85 82 -221 82q-93 0 -148 -58.5t-55 -160.5v-78h248q39 0 39 -39v-70q0 -39 -39 -39h-248v-827q0 -39 -39 -39h-92 q-39 0 -39 39v827h-106q-39 0 -39 39z" />
<glyph unicode="&#xfb03;" horiz-adv-x="1638" d="M37 905v70q0 39 39 39h106v59q0 172 95.5 268.5t267.5 96.5q178 0 291 -88q94 108 280 108q146 0 262 -72q31 -19 13 -53l-35 -61q-17 -32 -56 -10q-76 49 -174 49q-96 0 -146 -54t-50 -155v-88h534q39 0 39 -39v-936q0 -39 -39 -39h-92q-39 0 -39 39v827h-403v-827 q0 -39 -39 -39h-92q-39 0 -39 39v827h-408v-827q0 -39 -39 -39h-92q-39 0 -39 39v827h-106q-39 0 -39 39zM352 1014h408v90q0 42 10 104q-88 82 -215 82q-93 0 -148 -58.5t-55 -160.5v-57z" />
<glyph unicode="&#xfb04;" horiz-adv-x="1658" d="M37 905v70q0 39 39 39h106v59q0 172 95.5 268.5t267.5 96.5q173 0 295 -90q91 110 282 110q125 0 234 -53q3 29 37 29h92q39 0 39 -39v-1356q0 -39 -39 -39h-92q-39 0 -39 39v1190q-85 82 -221 82q-93 0 -148 -58.5t-55 -160.5v-78h248q39 0 39 -39v-70q0 -39 -39 -39 h-248v-827q0 -39 -39 -39h-92q-39 0 -39 39v827h-408v-827q0 -39 -39 -39h-92q-39 0 -39 39v827h-106q-39 0 -39 39zM352 1014h408v80q0 60 12 112q-90 84 -217 84q-93 0 -148 -58.5t-55 -160.5v-57z" />
<glyph horiz-adv-x="0" />
<glyph horiz-adv-x="682" />
<glyph unicode=" "  horiz-adv-x="440" />
<glyph unicode="&#x09;" horiz-adv-x="440" />
<glyph unicode="&#xa0;" horiz-adv-x="440" />
<glyph unicode="!" horiz-adv-x="481" d="M127 88q0 49 32.5 82t80.5 33q49 0 81.5 -32.5t32.5 -82.5q0 -49 -32 -81t-82 -32q-48 0 -80.5 32t-32.5 81zM156 770v551q0 39 39 39h92q39 0 39 -39v-551l-35 -371q-3 -26 -29 -26h-43q-26 0 -29 26z" />
<glyph unicode="&#x22;" horiz-adv-x="772" d="M135 1319q-3 41 39 41h90q42 0 39 -41l-22 -397q-3 -33 -35 -33h-53q-32 0 -35 33zM477 1319q-3 41 39 41h90q42 0 39 -41l-22 -397q-3 -33 -35 -33h-53q-32 0 -35 33z" />
<glyph unicode="#" d="M51 418l12 67q6 31 39 31h160l51 287h-155q-39 0 -33 37l12 67q6 31 39 31h162l53 309q6 31 39 31h68q38 0 32 -37l-53 -303h240l53 309q6 31 39 31h68q38 0 32 -37l-53 -303h156q38 0 32 -37l-12 -67q-6 -31 -39 -31h-162l-49 -287h156q39 0 33 -37l-13 -67 q-6 -31 -38 -31h-162l-60 -350q-6 -31 -39 -31h-69q-39 0 -33 37l61 344h-239l-60 -350q-6 -31 -38 -31h-70q-39 0 -33 37l62 344h-156q-39 0 -33 37zM403 516h238l51 287h-239z" />
<glyph unicode="$" d="M135 203q-25 28 4 53l62 57q30 30 53 -4q100 -118 264 -133v385q-202 23 -289.5 103t-87.5 239q0 149 105 248q106 100 272 109v118q0 31 31 31h55q31 0 31 -31v-121q208 -18 321 -155q24 -26 -6 -53l-59 -56q-31 -24 -55 6q-76 85 -201 103v-389q200 -23 286.5 -102.5 t86.5 -235.5q0 -149 -102.5 -247t-270.5 -110v-131q0 -30 -31 -30h-55q-31 0 -31 30v131q-248 18 -383 185zM317 907q0 -75 47.5 -117t153.5 -61v375q-93 -12 -147 -65.5t-54 -131.5zM635 176q93 12 146 64.5t53 130.5q0 74 -46.5 114.5t-152.5 59.5v-369z" />
<glyph unicode="%" horiz-adv-x="1296" d="M63 889v162q0 121 64.5 186.5t183.5 65.5t183.5 -65.5t64.5 -186.5v-162q0 -123 -63.5 -188.5t-184.5 -65.5t-184.5 65.5t-63.5 188.5zM171.5 10q-5.5 10 4.5 27l807 1220q12 21 37 21h80q20 0 25.5 -10t-5.5 -27l-807 -1221q-11 -20 -37 -20h-79q-20 0 -25.5 10z M190 893q0 -75 29 -108t92 -33t92 33t29 108v154q0 73 -29 106t-92 33t-92 -33t-29 -106v-154zM737 229v162q0 121 64.5 186.5t183.5 65.5t183.5 -65.5t64.5 -186.5v-162q0 -123 -63.5 -188.5t-184.5 -65.5t-184.5 65.5t-63.5 188.5zM864 233q0 -75 29 -108t92 -33t92 33 t29 108v154q0 73 -29 106t-92 33t-92 -33t-29 -106v-154z" />
<glyph unicode="&#x26;" horiz-adv-x="1210" d="M70 367q0 244 231 407q-102 138 -102 268q0 161 96 251.5t264 90.5q170 0 285 -86q30 -24 8 -55l-45 -65q-22 -32 -53 -7q-85 60 -179 60q-97 0 -149.5 -50t-52.5 -141q0 -106 119 -237l380 -424q62 114 107 266q9 36 47 27l82 -23q36 -9 27 -49q-67 -220 -148 -348 l184 -205q17 -19 11 -33t-31 -14h-123q-30 0 -47 20l-94 103q-148 -148 -377 -148q-204 0 -322 106t-118 286zM246 375q0 -114 74 -182t202 -68q143 0 256 119l-375 411q-157 -118 -157 -280z" />
<glyph unicode="'" horiz-adv-x="430" d="M135 1319q-3 41 39 41h90q42 0 39 -41l-22 -397q-3 -33 -35 -33h-53q-32 0 -35 33z" />
<glyph unicode="(" horiz-adv-x="673" d="M160 588q0 425 252 751q18 21 43 21h84q20 0 26 -12t-6 -31q-225 -325 -225 -729t225 -729q12 -19 6 -31t-26 -12h-84q-26 0 -43 20q-252 325 -252 752z" />
<glyph unicode=")" horiz-adv-x="673" d="M115 -172q-6 12 6 31q225 325 225 729t-225 729q-12 19 -6 31t26 12h84q25 0 43 -21q252 -326 252 -751q0 -426 -252 -752q-17 -20 -43 -20h-84q-20 0 -26 12z" />
<glyph unicode="*" horiz-adv-x="980" d="M74 1094l22 73q12 35 47 23l314 -133l-27 338q-3 39 35 39h76q37 0 34 -39l-26 -338l313 133q35 12 47 -23l23 -73q12 -39 -25 -45l-334 -80l226 -258q23 -30 -8 -52l-62 -43q-28 -22 -51 11l-174 291l-176 -291q-23 -33 -52 -11l-61 43q-36 22 -6 52l223 258l-334 80 q-36 6 -24 45z" />
<glyph unicode="+" d="M43 530v80q0 39 39 39h381v381q0 39 39 39h80q39 0 39 -39v-381h378q39 0 39 -39v-80q0 -38 -39 -38h-378v-379q0 -39 -39 -39h-80q-39 0 -39 39v379h-381q-39 0 -39 38z" />
<glyph unicode="," horiz-adv-x="477" d="M135 96q-6 63 52 92q54 26 109 3q66 -28 66 -106v-11q0 -175 -151 -305q-22 -15 -39 2l-29 28q-19 16 2 37q67 67 76 156q-86 18 -86 104z" />
<glyph unicode="-" horiz-adv-x="679" d="M61 516v84q0 39 39 39h480q38 0 38 -39v-84q0 -39 -38 -39h-480q-39 0 -39 39z" />
<glyph unicode="." horiz-adv-x="477" d="M125 88q0 49 32.5 82t80.5 33q49 0 81.5 -32.5t32.5 -82.5q0 -49 -32 -81t-82 -32q-48 0 -80.5 32t-32.5 81z" />
<glyph unicode="/" horiz-adv-x="729" d="M70 41l467 1290q10 29 38 29h84q44 0 29 -41l-467 -1290q-10 -29 -39 -29h-84q-43 0 -28 41z" />
<glyph unicode="0" d="M104 418v444q0 215 113 328t324 113q214 0 326 -113t112 -328v-444q0 -215 -112 -329t-326 -114q-211 0 -324 114t-113 329zM281 428q0 -297 260 -297q262 0 262 297v424q0 295 -262 295q-260 0 -260 -295v-424z" />
<glyph unicode="1" d="M262 928q-20 33 8 53l377 281q22 16 49 16h72q39 0 39 -39v-1200q0 -39 -39 -39h-98q-39 0 -39 39v1014l-271 -199q-34 -20 -55 10z" />
<glyph unicode="2" d="M147 39v80q0 28 21 49l496 491q82 82 113.5 141t31.5 132q0 100 -65.5 157.5t-182.5 57.5q-174 0 -280 -158q-22 -36 -54 -10l-63 47q-28 22 -10 53q140 224 411 224q195 0 307.5 -99.5t112.5 -271.5q0 -108 -43.5 -194t-146.5 -185l-408 -393v-4h557q39 0 39 -39v-78 q0 -39 -39 -39h-758q-39 0 -39 39z" />
<glyph unicode="3" d="M145 154q-24 26 5 55l57 57q27 27 55 -4q113 -131 309 -131q134 0 207.5 60.5t73.5 170.5q0 222 -315 222h-82q-39 0 -39 39v77q0 39 39 39h71q293 0 293 199q0 100 -67.5 154.5t-190.5 54.5q-176 0 -289 -131q-23 -34 -53 -4l-57 57q-27 27 -2 55q153 179 409 179 q201 0 313.5 -93.5t112.5 -259.5q0 -206 -184 -282v-4q217 -73 217 -314q0 -177 -118.5 -276t-329.5 -99q-285 0 -435 179z" />
<glyph unicode="4" d="M74 328v96q0 28 16 47l596 784q16 23 47 23h111q39 0 39 -39v-795h116q39 0 39 -38v-78q0 -39 -39 -39h-116v-250q0 -39 -39 -39h-99q-38 0 -38 39v250h-594q-39 0 -39 39zM268 444h439v578h-5z" />
<glyph unicode="5" d="M143 154q-22 28 2 55l58 57q28 28 55 -2q115 -133 309 -133q129 0 204 72.5t75 197.5q0 122 -75 193.5t-204 71.5q-152 0 -248 -84q-20 -20 -49 -17l-63 8q-38 6 -35 43l41 625q3 37 39 37h659q39 0 39 -39v-78q0 -39 -39 -39h-542l-25 -377h4q101 76 258 76 q188 0 301 -116q115 -115 115 -304q0 -196 -120 -311t-324 -115q-288 0 -435 179z" />
<glyph unicode="6" d="M125 401v463q0 204 116 321.5t320 117.5q230 0 363 -127q29 -26 2 -56l-56 -63q-21 -27 -55 0q-96 90 -237 90q-134 0 -205.5 -75.5t-71.5 -217.5v-145h4q100 118 291 118q184 0 292.5 -114.5t108.5 -306.5q0 -196 -119 -313.5t-317 -117.5q-202 0 -319 114.5t-117 311.5 zM301 401q0 -125 69.5 -197.5t190.5 -72.5q122 0 191 71.5t69 198.5t-69 199t-191 72q-119 0 -189.5 -73.5t-70.5 -197.5z" />
<glyph unicode="7" d="M106 938v301q0 39 39 39h838q39 0 39 -39v-100q0 -23 -12 -47l-529 -1063q-16 -29 -45 -29h-112q-50 0 -29 47l545 1075h-570v-184q0 -39 -39 -39h-86q-39 0 -39 39z" />
<glyph unicode="8" d="M80 350q0 228 213 314v4q-180 82 -180 282q0 166 113.5 259.5t314.5 93.5q202 0 316 -93.5t114 -259.5q0 -199 -183 -282v-4q216 -86 216 -314q0 -178 -121.5 -276.5t-341.5 -98.5t-340.5 98t-120.5 277zM256 360q0 -110 74 -169.5t211 -59.5t211.5 59.5t74.5 169.5 q0 106 -75 166t-211 60q-135 0 -210 -60t-75 -166zM289 940q0 -94 65.5 -146.5t186.5 -52.5t187.5 52.5t66.5 146.5q0 100 -65.5 153.5t-188.5 53.5q-121 0 -186.5 -53.5t-65.5 -153.5z" />
<glyph unicode="9" d="M86 872q0 196 119 313.5t317 117.5q202 0 319 -114.5t117 -311.5v-463q0 -204 -116 -321.5t-320 -117.5q-229 0 -362 127q-29 26 -2 56l55 63q21 27 55 0q96 -90 238 -90q134 0 205 75.5t71 217.5v145h-4q-100 -118 -291 -118q-184 0 -292.5 114.5t-108.5 306.5zM262 877 q0 -125 69.5 -198t190.5 -73q119 0 189.5 73.5t70.5 197.5q0 125 -69.5 197.5t-190.5 72.5t-190.5 -72.5t-69.5 -197.5z" />
<glyph unicode=":" horiz-adv-x="477" d="M125 88q0 49 32.5 82t80.5 33q49 0 81.5 -32.5t32.5 -82.5q0 -49 -32 -81t-82 -32q-48 0 -80.5 32t-32.5 81zM125 856q0 49 32.5 82t80.5 33q49 0 81.5 -32.5t32.5 -82.5q0 -49 -32 -81t-82 -32q-48 0 -80.5 32t-32.5 81z" />
<glyph unicode=";" horiz-adv-x="477" d="M135 96q-6 63 52 92q54 26 109 3q66 -28 66 -106v-11q0 -175 -151 -305q-22 -15 -39 2l-29 28q-19 16 2 37q67 67 76 156q-86 18 -86 104zM135 856q0 49 32.5 82t80.5 33q49 0 81.5 -32.5t32.5 -82.5q0 -49 -32 -81t-82 -32q-48 0 -80.5 32t-32.5 81z" />
<glyph unicode="&#x3c;" d="M80 532v78q0 32 29 45l847 383q45 17 45 -28v-86q0 -33 -28 -45l-688 -306v-4l688 -305q28 -12 28 -45v-86q0 -46 -45 -29l-847 383q-29 13 -29 45z" />
<glyph unicode="=" d="M76 301v80q0 39 39 39h854q39 0 39 -39v-80q0 -39 -39 -39h-854q-39 0 -39 39zM76 762v80q0 39 39 39h854q39 0 39 -39v-80q0 -39 -39 -39h-854q-39 0 -39 39z" />
<glyph unicode="&#x3e;" d="M80 133v86q0 32 29 45l688 305v4l-688 306q-29 13 -29 45v86q0 45 45 28l848 -383q28 -12 28 -45v-78q0 -33 -28 -45l-848 -383q-45 -17 -45 29z" />
<glyph unicode="?" horiz-adv-x="929" d="M76 1163q138 221 409 221q192 0 305 -98.5t113 -265.5q0 -120 -49.5 -200.5t-171.5 -151.5q-96 -57 -134 -108.5t-38 -125.5v-22q0 -39 -39 -39h-82q-39 0 -39 39v34q0 107 46.5 181.5t158.5 142.5q97 61 134.5 116t37.5 134q0 98 -64.5 153.5t-179.5 55.5 q-177 0 -280 -158q-21 -35 -53 -10l-64 47q-30 21 -10 55zM319 88q0 49 32.5 82t80.5 33q50 0 82.5 -32.5t32.5 -82.5q0 -49 -32.5 -81t-82.5 -32q-48 0 -80.5 32t-32.5 81z" />
<glyph unicode="@" horiz-adv-x="1497" d="M88 573q0 381 186 594q187 217 525 217q297 0 452 -192q158 -193 158 -498q0 -230 -72 -356q-71 -123 -207 -123t-182 113h-4q-70 -113 -227 -113q-123 0 -191.5 63.5t-68.5 176.5q0 111 71.5 173t204.5 62h162v6q0 105 -41 153t-131 48q-86 0 -152 -57q-28 -22 -47 6 l-26 39q-18 23 4 45q101 82 229 82q295 0 295 -299v-240q0 -143 107 -143q145 0 145 344q0 268 -119 430q-120 166 -364 166q-277 0 -426.5 -182t-149.5 -513q0 -291 149 -454.5t418 -163.5q201 0 347 96q29 22 45 -10l24 -47q15 -24 -14 -43q-165 -109 -406 -109 q-326 0 -510 193t-184 536zM588 453q0 -123 145 -123q75 0 118.5 48t43.5 140v60h-147q-160 0 -160 -125z" />
<glyph unicode="A" horiz-adv-x="1202" d="M74 45l434 1282q11 33 47 33h125q35 0 47 -35l434 -1280q4 -11 4 -19q0 -26 -37 -26h-114q-34 0 -43 33l-80 248h-553l-80 -248q-9 -33 -43 -33h-109q-36 0 -36 26q0 8 4 19zM391 442h449l-224 697h-4z" />
<glyph unicode="B" horiz-adv-x="1155" d="M162 39v1282q0 39 39 39h374q241 0 352 -84.5t111 -267.5q0 -240 -196 -310v-4q233 -67 233 -334q0 -186 -112 -273t-351 -87h-411q-39 0 -39 39zM346 162h264q146 0 213.5 53.5t67.5 169.5q0 117 -67 170t-214 53h-264v-446zM346 770h229q146 0 213.5 51.5t67.5 163.5 q0 110 -67.5 161.5t-213.5 51.5h-229v-428z" />
<glyph unicode="C" horiz-adv-x="1079" d="M115 467v426q0 239 122.5 365t354.5 126q303 0 428 -239q6 -12 6 -22q0 -19 -22 -31l-76 -43q-33 -20 -54 14q-89 160 -282 160q-293 0 -293 -353v-381q0 -352 293 -352q192 0 282 158q11 24 30 24q11 0 24 -8l76 -43q22 -13 22 -32q0 -10 -6 -21q-129 -240 -428 -240 q-232 0 -354.5 126.5t-122.5 365.5z" />
<glyph unicode="D" horiz-adv-x="1210" d="M162 39v1282q0 39 39 39h407q488 0 488 -467v-424q0 -469 -488 -469h-407q-39 0 -39 39zM346 162h254q158 0 234.5 81.5t76.5 248.5v378q0 167 -76.5 247.5t-234.5 80.5h-254v-1036z" />
<glyph unicode="E" horiz-adv-x="1101" d="M162 39v1282q0 39 39 39h774q39 0 39 -39v-84q0 -39 -39 -39h-629v-430h539q39 0 39 -39v-84q0 -39 -39 -39h-539v-444h629q39 0 39 -39v-84q0 -39 -39 -39h-774q-39 0 -39 39z" />
<glyph unicode="F" horiz-adv-x="1034" d="M162 39v1282q0 39 39 39h753q39 0 39 -39v-84q0 -39 -39 -39h-608v-442h518q39 0 39 -39v-84q0 -39 -39 -39h-518v-555q0 -39 -39 -39h-106q-39 0 -39 39z" />
<glyph unicode="G" horiz-adv-x="1165" d="M115 467v426q0 239 124.5 365t362.5 126q311 0 445 -239q16 -36 -17 -53l-76 -43q-32 -20 -53 14q-95 160 -301 160q-301 0 -301 -353v-381q0 -352 299 -352q301 0 301 359v73h-256q-39 0 -39 39v84q0 39 39 39h393q39 0 39 -39v-219q0 -242 -123 -370t-356 -128 t-357 126.5t-124 365.5z" />
<glyph unicode="H" horiz-adv-x="1275" d="M162 39v1282q0 39 39 39h106q39 0 39 -39v-551h584v551q0 39 39 39h106q39 0 39 -39v-1282q0 -39 -39 -39h-106q-39 0 -39 39v569h-584v-569q0 -39 -39 -39h-106q-39 0 -39 39z" />
<glyph unicode="I" horiz-adv-x="507" d="M162 39v1282q0 39 39 39h106q39 0 39 -39v-1282q0 -39 -39 -39h-106q-39 0 -39 39z" />
<glyph unicode="J" horiz-adv-x="1064" d="M72 195q-8 12 -8 23q0 17 18 30l68 51q14 11 26 11q17 0 29 -21q103 -152 280 -152q275 0 275 334v850q0 39 39 39h106q39 0 39 -39v-870q0 -232 -114.5 -354t-333.5 -122q-290 0 -424 220z" />
<glyph unicode="K" horiz-adv-x="1148" d="M162 39v1282q0 39 39 39h106q39 0 39 -39v-578l500 594q16 23 47 23h135q26 0 33 -14t-10 -33l-537 -621l559 -645q12 -14 12 -25q1 -4 -1 -8q-6 -14 -33 -14h-146q-31 0 -47 23l-512 604v-588q0 -39 -39 -39h-106q-39 0 -39 39z" />
<glyph unicode="L" horiz-adv-x="1021" d="M162 39v1282q0 39 39 39h106q39 0 39 -39v-1159h598q39 0 39 -39v-84q0 -39 -39 -39h-743q-39 0 -39 39z" />
<glyph unicode="M" horiz-adv-x="1679" d="M162 39v1282q0 39 39 39h207q33 0 45 -31l387 -1055h4l387 1055q12 31 45 31h203q39 0 39 -39v-1282q0 -39 -39 -39h-107q-39 0 -39 39v1061h-4l-399 -1069q-12 -31 -45 -31h-94q-34 0 -46 31l-399 1069h-4v-1061q0 -39 -39 -39h-102q-39 0 -39 39z" />
<glyph unicode="N" horiz-adv-x="1275" d="M162 39v1282q0 39 39 39h133q30 0 45 -27l551 -993h4v981q0 39 39 39h102q39 0 39 -39v-1282q0 -39 -39 -39h-119q-30 0 -45 27l-565 1022h-4v-1010q0 -39 -39 -39h-102q-39 0 -39 39z" />
<glyph unicode="O" horiz-adv-x="1204" d="M115 467v426q0 239 124.5 365t362.5 126t363 -126t125 -365v-426q0 -239 -125 -365.5t-363 -126.5t-362.5 126.5t-124.5 365.5zM299 489q0 -352 303 -352t303 352v381q0 353 -303 353t-303 -353v-381z" />
<glyph unicode="P" horiz-adv-x="1118" d="M162 39v1282q0 39 39 39h381q248 0 365.5 -101t117.5 -315q0 -216 -117.5 -318t-365.5 -102h-236v-485q0 -39 -39 -39h-106q-39 0 -39 39zM346 686h234q155 0 227 61.5t72 194.5t-72 194.5t-227 61.5h-234v-512z" />
<glyph unicode="Q" horiz-adv-x="1204" d="M115 467v426q0 239 124.5 365t362.5 126t363 -126t125 -365v-426q0 -398 -332 -475q9 -162 151 -162q79 0 138 41q34 21 51 -14l32 -68q7 -13 7 -24q0 -18 -19 -31q-91 -60 -209 -60q-313 0 -331 301q-226 8 -344.5 133.5t-118.5 358.5zM299 489q0 -352 303 -352t303 352 v381q0 353 -303 353t-303 -353v-381z" />
<glyph unicode="R" horiz-adv-x="1163" d="M162 39v1282q0 39 39 39h368q248 0 367 -100.5t119 -309.5q0 -325 -295 -395l307 -508q7 -12 7 -22q0 -5 -2 -11q-8 -14 -32 -14h-127q-29 0 -47 27l-293 510h-227v-498q0 -39 -39 -39h-106q-39 0 -39 39zM346 698h223q155 0 227 60t72 190q0 129 -72 189.5t-227 60.5 h-223v-500z" />
<glyph unicode="S" horiz-adv-x="1048" d="M106 172q-11 12 -11 24q0 15 16 29l65 62q26 25 53 -2q130 -148 344 -148q121 0 192 62t71 168q0 95 -67.5 145.5t-236.5 79.5q-226 38 -321.5 130t-95.5 267q0 181 118 287q120 108 318 108q276 0 416 -165q22 -28 -6 -56l-68 -61q-14 -13 -27 -13q-15 0 -28 17 q-94 117 -279 117q-121 0 -190.5 -62t-69.5 -168q0 -97 67 -147.5t238 -81.5q226 -38 321 -128.5t95 -264.5q0 -180 -119 -287q-121 -109 -317 -109q-314 0 -478 197z" />
<glyph unicode="T" horiz-adv-x="1009" d="M39 1237v84q0 39 39 39h854q39 0 39 -39v-84q0 -39 -39 -39h-336v-1159q0 -39 -39 -39h-106q-39 0 -39 39v1159h-334q-39 0 -39 39z" />
<glyph unicode="U" horiz-adv-x="1204" d="M139 451v870q0 39 39 39h107q39 0 39 -39v-852q0 -170 68.5 -251t211.5 -81t212 81t69 251v852q0 39 39 39h102q39 0 39 -39v-870q0 -232 -118.5 -354t-344.5 -122t-344.5 122t-118.5 354z" />
<glyph unicode="V" horiz-adv-x="1165" d="M70 1315q-3 10 -3 17q0 28 35 28h115q34 0 43 -33l336 -1067h4l338 1067q9 33 43 33h106q36 0 36 -28q0 -7 -3 -17l-415 -1280q-12 -35 -48 -35h-125q-35 0 -47 35z" />
<glyph unicode="W" horiz-adv-x="1746" d="M72 1317q-3 9 -3 16q0 27 35 27h119q34 0 43 -33l256 -1036h4l273 1034q9 35 45 35h90q36 0 45 -35l272 -1030h4l256 1032q9 33 43 33h113q36 0 36 -27q0 -7 -3 -16l-342 -1282q-9 -35 -45 -35h-127q-36 0 -45 35l-254 958h-4l-252 -958q-9 -35 -45 -35h-129 q-36 0 -45 35z" />
<glyph unicode="X" horiz-adv-x="1161" d="M84 14q-3 5 -3 11q0 10 7 22l385 649l-367 617q-12 20 -4 33.5t31 13.5h133q30 0 45 -27l281 -499l280 499q15 27 46 27h124q23 0 31 -13.5t-4 -33.5l-364 -615l385 -651q7 -12 7 -22q0 -5 -3 -11q-8 -14 -31 -14h-131q-30 0 -45 27l-301 536l-303 -536q-15 -27 -45 -27 h-123q-23 0 -31 14z" />
<glyph unicode="Y" horiz-adv-x="1085" d="M27 1346q7 14 30 14h133q31 0 46 -27l317 -567l317 567q15 27 45 27h125q23 0 30 -14q4 -5 4 -12q0 -9 -7 -21l-426 -723v-551q0 -39 -39 -39h-106q-39 0 -39 39v553l-426 721q-7 12 -7 22q0 6 3 11z" />
<glyph unicode="Z" horiz-adv-x="1069" d="M80 39v102q0 29 14 49l670 1008h-614q-39 0 -39 39v84q0 39 39 39h790q39 0 39 -39v-102q0 -30 -14 -50l-670 -1007h655q39 0 39 -39v-84q0 -39 -39 -39h-831q-39 0 -39 39z" />
<glyph unicode="[" horiz-adv-x="673" d="M180 -150v1475q0 35 35 35h338q35 0 35 -35v-68q0 -34 -35 -34h-203v-1270h203q35 0 35 -35v-68q0 -34 -35 -34h-338q-35 0 -35 34z" />
<glyph unicode="\" horiz-adv-x="729" d="M70 1319q-15 41 28 41h84q29 0 39 -29l467 -1290q15 -41 -29 -41h-84q-28 0 -38 29z" />
<glyph unicode="]" horiz-adv-x="673" d="M86 -82q0 35 35 35h203v1270h-203q-35 0 -35 34v68q0 35 35 35h338q35 0 35 -35v-1475q0 -34 -35 -34h-338q-35 0 -35 34v68z" />
<glyph unicode="^" d="M54.5 541.5q-7.5 13.5 4.5 33.5l400 674q19 29 47 29h84q28 0 47 -29l399 -674q12 -20 5 -33.5t-31 -13.5h-95q-29 0 -47 27l-319 549l-322 -549q-18 -27 -47 -27h-94q-24 0 -31.5 13.5z" />
<glyph unicode="_" horiz-adv-x="1024" d="M0 -113h1024v-102h-1024v102z" />
<glyph unicode="`" horiz-adv-x="1024" d="M264 1458q6 12 29 12h106q25 0 41 -22l154 -248q11 -17 4 -29t-27 -12h-84q-27 0 -43 23l-172 245q-14 19 -8 31z" />
<glyph unicode="a" horiz-adv-x="933" d="M78 291q0 148 94 228.5t270 80.5h222v25q0 138 -57 202t-177 64q-110 0 -203 -78q-15 -14 -28 -14q-15 0 -27 18l-43 60q-21 31 6 55q130 106 309 106q191 0 290.5 -100.5t99.5 -296.5v-279q0 -189 -100 -288t-290 -99q-177 0 -271.5 82t-94.5 234zM248 289 q0 -166 196 -166q220 0 220 256v80h-201q-104 0 -159.5 -43t-55.5 -127z" />
<glyph unicode="b" horiz-adv-x="999" d="M127 362v1033q0 39 39 39h92q39 0 39 -39v-459h4q77 102 240 102q174 0 266 -99t92 -288v-289q0 -189 -98 -288t-287 -99t-288 99t-99 288zM297 379q0 -131 52.5 -193.5t164.5 -62.5q110 0 162.5 62.5t52.5 193.5v254q0 133 -52 195.5t-163 62.5q-217 0 -217 -258v-254z " />
<glyph unicode="c" horiz-adv-x="829" d="M100 373v270q0 194 99 294.5t286 100.5q173 0 271 -88q28 -25 4 -55l-43 -53q-25 -28 -55 -4q-65 53 -166 53q-116 0 -171 -65t-55 -201v-236q0 -266 234 -266q108 0 178 70q15 15 28 15q14 0 27 -18l41 -51q11 -15 11 -28q0 -14 -13 -27q-115 -109 -284 -109 q-190 0 -291 102t-101 296z" />
<glyph unicode="d" horiz-adv-x="999" d="M100 362v289q0 188 92.5 287.5t266.5 99.5q163 0 239 -102h4v459q0 39 39 39h93q38 0 38 -39v-1033q0 -189 -99 -288t-288 -99t-287 99t-98 288zM270 379q0 -131 52.5 -193.5t162.5 -62.5q112 0 164.5 62.5t52.5 193.5v254q0 258 -217 258q-111 0 -163 -62.5t-52 -195.5 v-254z" />
<glyph unicode="e" horiz-adv-x="940" d="M100 373v278q0 189 97 288t282 99t282 -99t97 -288v-164q0 -38 -39 -38h-549v-60q0 -139 59.5 -202.5t188.5 -63.5q114 0 207 84q14 14 26 14q15 0 29 -18l41 -51q22 -32 -2 -56q-127 -121 -307 -121q-412 0 -412 398zM270 590h426v43q0 133 -52 195.5t-161 62.5 t-161 -62.5t-52 -195.5v-43z" />
<glyph unicode="f" horiz-adv-x="675" d="M37 905v70q0 39 39 39h106v90q0 171 85.5 262.5t244.5 91.5q119 0 203 -41q21 -11 21 -31q0 -10 -5 -22l-29 -64q-15 -35 -51 -16q-53 27 -125 27q-174 0 -174 -209v-88h279q39 0 39 -39v-70q0 -39 -39 -39h-279v-827q0 -39 -39 -39h-92q-39 0 -39 39v827h-106 q-39 0 -39 39z" />
<glyph unicode="g" horiz-adv-x="999" d="M100 395v256q0 189 98 288t287 99t288 -99t99 -288v-641q0 -170 -102.5 -266t-282.5 -96q-204 0 -331 112q-28 25 -6 56l38 55q11 19 27 19q12 0 27 -13q101 -82 235 -82q110 0 167.5 58.5t57.5 169.5v88h-4q-77 -103 -239 -103q-174 0 -266.5 99.5t-92.5 287.5zM270 414 q0 -133 52 -195.5t163 -62.5q217 0 217 258v221q0 131 -52.5 193.5t-164.5 62.5q-110 0 -162.5 -62.5t-52.5 -193.5v-221z" />
<glyph unicode="h" horiz-adv-x="1021" d="M137 39v1356q0 39 39 39h92q39 0 39 -39v-457h4q75 100 238 100q168 0 257 -97.5t89 -281.5v-620q0 -39 -39 -39h-92q-39 0 -39 39v602q0 129 -50 189.5t-159 60.5q-209 0 -209 -250v-602q0 -39 -39 -39h-92q-39 0 -39 39z" />
<glyph unicode="i" horiz-adv-x="444" d="M115 1309q0 47 29.5 77.5t76.5 30.5t78 -30.5t31 -77.5t-31 -77t-78 -30q-45 0 -75.5 30t-30.5 77zM137 39v936q0 39 39 39h92q39 0 39 -39v-936q0 -39 -39 -39h-92q-39 0 -39 39z" />
<glyph unicode="j" horiz-adv-x="444" d="M-43 -219q0 39 39 39q73 0 107 36.5t34 116.5v1002q0 39 39 39h92q39 0 39 -39v-1002q0 -301 -284 -301h-27q-39 0 -39 39v70zM115 1309q0 47 29.5 77.5t76.5 30.5t78 -30.5t31 -77.5t-31 -77t-78 -30q-45 0 -75.5 30t-30.5 77z" />
<glyph unicode="k" horiz-adv-x="921" d="M137 39v1356q0 39 39 39h92q39 0 39 -39v-838l365 434q16 23 47 23h110q26 0 33 -14t-10 -33l-383 -449l405 -471q12 -14 12 -25q0 -4 -2 -8q-6 -14 -32 -14h-121q-31 0 -47 23l-377 450v-434q0 -39 -39 -39h-92q-39 0 -39 39z" />
<glyph unicode="l" horiz-adv-x="444" d="M137 39v1356q0 39 39 39h92q39 0 39 -39v-1356q0 -39 -39 -39h-92q-39 0 -39 39z" />
<glyph unicode="m" horiz-adv-x="1544" d="M127 39v623q0 183 90.5 279.5t261.5 96.5q207 0 289 -137h4q82 137 289 137q173 0 264.5 -96.5t91.5 -279.5v-623q0 -39 -39 -39h-92q-39 0 -39 39v606q0 127 -48 186.5t-148 59.5q-195 0 -195 -246v-606q0 -39 -39 -39h-92q-39 0 -39 39v606q0 246 -197 246 q-192 0 -192 -246v-606q0 -39 -39 -39h-92q-39 0 -39 39z" />
<glyph unicode="n" horiz-adv-x="1011" d="M127 39v620q0 185 97.5 282t281.5 97t281.5 -97t97.5 -282v-620q0 -39 -39 -39h-92q-39 0 -39 39v602q0 129 -50 189.5t-159 60.5t-159 -60.5t-50 -189.5v-602q0 -39 -39 -39h-92q-39 0 -39 39z" />
<glyph unicode="o" horiz-adv-x="972" d="M100 360v291q0 189 98 288t287 99t288 -99t99 -288v-291q0 -189 -99 -287t-288 -98q-187 0 -286 98.5t-99 286.5zM270 379q0 -131 52.5 -193.5t162.5 -62.5q112 0 164.5 62.5t52.5 193.5v254q0 134 -52.5 196t-164.5 62q-111 0 -163 -62.5t-52 -195.5v-254z" />
<glyph unicode="p" horiz-adv-x="999" d="M127 -289v940q0 189 99 288t288 99t287 -99t98 -288v-289q0 -189 -92 -288t-266 -99q-163 0 -240 103h-4v-367q0 -39 -39 -39h-92q-39 0 -39 39zM297 381q0 -258 217 -258q111 0 163 62.5t52 195.5v254q0 131 -52.5 193.5t-162.5 62.5q-112 0 -164.5 -62.5t-52.5 -193.5 v-254z" />
<glyph unicode="q" horiz-adv-x="999" d="M100 362v289q0 189 98 288t287 99t288 -99t99 -288v-940q0 -39 -38 -39h-93q-39 0 -39 39v367h-4q-77 -103 -239 -103q-174 0 -266.5 99.5t-92.5 287.5zM270 381q0 -133 52 -195.5t163 -62.5q217 0 217 258v254q0 131 -52.5 193.5t-164.5 62.5q-110 0 -162.5 -62.5 t-52.5 -193.5v-254z" />
<glyph unicode="r" horiz-adv-x="745" d="M127 39v629q0 370 340 370q136 0 227 -61q21 -13 21 -31q0 -11 -8 -24l-35 -60q-12 -19 -29 -19q-12 0 -27 9q-62 39 -133 39q-186 0 -186 -225v-627q0 -39 -39 -39h-92q-39 0 -39 39z" />
<glyph unicode="s" horiz-adv-x="849" d="M98 147l43 58q25 29 56 4q100 -86 254 -86q94 0 145 40.5t51 115.5q0 68 -49.5 103t-173.5 54q-176 26 -248 94.5t-72 204.5q0 137 98.5 220t262.5 83q176 0 297 -86q30 -24 8 -55l-39 -57q-21 -30 -55 -6q-80 57 -195 57q-207 0 -207 -156q0 -62 48.5 -95t166.5 -50 q177 -25 252.5 -97t75.5 -214q0 -140 -94.5 -222t-255.5 -82q-236 0 -367 119q-13 13 -13 26t11 27z" />
<glyph unicode="t" horiz-adv-x="727" d="M37 905v70q0 39 39 39h106v231q0 39 39 39h92q39 0 39 -39v-231h279q39 0 39 -39v-70q0 -39 -39 -39h-279v-563q0 -180 164 -180q56 0 102 24q16 8 27 8q20 0 27 -24l24 -68q3 -9 3 -17q0 -19 -21 -32q-68 -39 -180 -39q-316 0 -316 324v567h-106q-39 0 -39 39z" />
<glyph unicode="u" horiz-adv-x="999" d="M127 348v627q0 39 39 39h92q39 0 39 -39v-613q0 -124 49.5 -181.5t155.5 -57.5t155.5 57.5t49.5 181.5v613q0 39 38 39h89q38 0 38 -39v-627q0 -183 -94.5 -278t-277.5 -95t-278 95t-95 278z" />
<glyph unicode="v" horiz-adv-x="929" d="M59 969q-4 11 -4 19q0 26 37 26h105q34 0 43 -33l241 -768h4l246 768q9 33 43 33h96q37 0 37 -26q0 -8 -4 -19l-319 -936q-11 -33 -47 -33h-111q-36 0 -47 33z" />
<glyph unicode="w" horiz-adv-x="1415" d="M57 971q-3 9 -3 16q0 27 36 27h103q34 0 43 -33l196 -723h4l209 721q9 35 47 35h66q38 0 47 -35l207 -717h4l198 719q9 33 43 33h95q35 0 35 -27q0 -7 -3 -16l-276 -938q-9 -33 -47 -33h-100q-39 0 -48 33l-190 667h-4l-193 -667q-9 -33 -47 -33h-100q-38 0 -47 33z" />
<glyph unicode="x" horiz-adv-x="948" d="M74 14q-3 5 -3 11q0 10 7 22l297 477l-275 443q-12 20 -4 33.5t31 13.5h111q32 0 47 -27l202 -352l205 352q15 27 47 27h101q23 0 30.5 -13.5t-4.5 -33.5l-274 -443l297 -477q7 -12 7 -22q0 -5 -3 -11q-8 -14 -31 -14h-110q-32 0 -47 27l-226 387l-227 -387 q-15 -27 -47 -27h-101q-22 0 -30 14z" />
<glyph unicode="y" horiz-adv-x="1021" d="M127 387v588q0 39 39 39h92q39 0 39 -39v-572q0 -127 51.5 -187t157.5 -60q209 0 209 247v572q0 39 39 39h92q39 0 39 -39v-965q0 -170 -102.5 -266t-282.5 -96q-205 0 -332 112q-28 25 -6 56l39 55q11 19 26 19q13 0 27 -13q101 -82 235 -82q110 0 168 59t58 169v86h-4 q-76 -101 -238 -101q-170 0 -258 96.5t-88 282.5z" />
<glyph unicode="z" horiz-adv-x="874" d="M74 39v90q0 27 16 49l504 688h-451q-39 0 -39 39v70q0 39 39 39h609q39 0 39 -39v-90q0 -25 -17 -49l-506 -689h494q39 0 39 -38v-70q0 -39 -39 -39h-649q-39 0 -39 39z" />
<glyph unicode="{" horiz-adv-x="694" d="M84 555v66q0 33 35 36q121 9 121 158v252q0 154 73 223.5t234 69.5h26q35 0 35 -35v-68q0 -34 -35 -34q-90 0 -126.5 -41.5t-36.5 -141.5v-217q0 -198 -152 -233v-4q152 -35 152 -234v-217q0 -100 36.5 -141t126.5 -41q35 0 35 -35v-68q0 -34 -35 -34h-26 q-161 0 -234 69.5t-73 223.5v251q0 149 -121 158q-35 3 -35 37z" />
<glyph unicode="|" horiz-adv-x="540" d="M201 -295v1696q0 33 32 33h76q33 0 33 -33v-1696q0 -33 -33 -33h-76q-32 0 -32 33z" />
<glyph unicode="}" horiz-adv-x="694" d="M86 -82q0 35 35 35q91 0 127.5 41t36.5 141v217q0 199 151 234v4q-151 35 -151 233v217q0 100 -37 141.5t-127 41.5q-35 0 -35 34v68q0 35 35 35h26q161 0 234.5 -69.5t73.5 -223.5v-252q0 -149 120 -158q35 -3 35 -36v-66q0 -34 -35 -37q-120 -9 -120 -158v-251 q0 -154 -73.5 -223.5t-234.5 -69.5h-26q-35 0 -35 34v68z" />
<glyph unicode="~" d="M57 520q115 201 293 201q104 0 248 -84q107 -64 172 -64q89 0 166 121q22 37 53 15l60 -35q32 -19 14 -53q-117 -203 -293 -203q-104 0 -248 84q-105 63 -172 63q-92 0 -166 -121q-19 -32 -53 -14l-59 35q-33 20 -15 55z" />
<glyph unicode="&#xa1;" horiz-adv-x="481" d="M127 1272q0 49 32.5 80.5t82.5 31.5q48 0 80 -31.5t32 -80.5t-32.5 -82t-79.5 -33q-50 0 -82.5 32.5t-32.5 82.5zM156 39v551l34 371q3 26 29 26h43q26 0 29 -26l35 -371v-551q0 -39 -39 -39h-92q-39 0 -39 39z" />
<glyph unicode="&#xa2;" d="M188 432v230q0 390 381 411v117q0 31 31 31h55q31 0 31 -31v-121q141 -15 227 -90q29 -25 5 -55l-46 -56q-25 -28 -55 -4q-48 42 -131 54v-746q80 12 150 72q32 32 55 -2l45 -56q22 -31 -2 -55q-101 -96 -248 -111v-133q0 -30 -31 -30h-55q-31 0 -31 30v131 q-381 21 -381 414zM360 449q0 -129 50.5 -196.5t158.5 -80.5v748q-106 -12 -157.5 -80.5t-51.5 -198.5v-192z" />
<glyph unicode="&#xa3;" d="M131 557v74q0 35 35 35h94q-51 97 -68.5 153.5t-17.5 128.5q0 161 114 258t304 97q254 0 387 -160q24 -26 -6 -53l-62 -58q-28 -28 -55 6q-92 109 -256 109q-117 0 -183.5 -59.5t-66.5 -163.5q0 -76 53 -191q21 -42 29 -67h365q34 0 34 -35v-74q0 -35 -34 -35h-330 q2 -10 2 -47q0 -184 -119 -315v-4h574q39 0 39 -39v-78q0 -39 -39 -39h-721q-39 0 -39 39v80q0 29 20 49q127 127 127 287q0 13 -4 67h-141q-35 0 -35 35z" />
<glyph unicode="&#xa4;" d="M125 248q-25 24 0 49l135 131q-59 89 -59 205q0 118 59 207l-135 131q-25 25 0 49l53 53q24 25 49 0l133 -133q88 61 205 61q119 0 207 -61l133 133q25 25 49 0l54 -53q24 -24 0 -49l-136 -131q60 -91 60 -207q0 -114 -60 -205l136 -131q24 -25 0 -49l-54 -53 q-24 -25 -49 0l-133 133q-91 -60 -207 -60q-114 0 -205 60l-133 -133q-25 -25 -49 0zM336 633q0 -100 65.5 -166t165.5 -66t167 66t67 166q0 102 -67 168.5t-167 66.5t-165.5 -66.5t-65.5 -168.5z" />
<glyph unicode="&#xa5;" d="M80.5 1264.5q7.5 13.5 30.5 13.5h118q29 0 47 -27l279 -467l276 467q18 27 48 27h110q23 0 30.5 -13.5t-5.5 -33.5l-365 -576h283q35 0 35 -34v-72q0 -35 -35 -35h-295v-145h293q35 0 35 -35v-72q0 -35 -35 -35h-293v-188q0 -39 -39 -39h-98q-39 0 -39 39v188h-297 q-35 0 -35 35v72q0 35 35 35h297v145h-295q-35 0 -35 35v72q0 34 35 34h285l-365 576q-13 20 -5.5 33.5z" />
<glyph unicode="&#xa6;" horiz-adv-x="540" d="M201 -295v651q0 33 32 33h76q33 0 33 -33v-651q0 -33 -33 -33h-76q-32 0 -32 33zM201 750v651q0 33 32 33h76q33 0 33 -33v-651q0 -33 -33 -33h-76q-32 0 -32 33z" />
<glyph unicode="&#xa7;" horiz-adv-x="1132" d="M100 528q0 205 185 297v4q-154 77 -154 271q0 164 115 261t311 97q259 0 391 -147q25 -29 -2 -56l-53 -51q-25 -26 -53 2q-94 107 -281 107q-121 0 -191.5 -55.5t-70.5 -149.5q0 -85 67.5 -126.5t239.5 -61.5q231 -26 328.5 -105.5t97.5 -236.5q0 -214 -192 -302v-4 q161 -69 161 -266q0 -164 -114.5 -261t-309.5 -97q-301 0 -448 172q-24 27 4 55l53 51q26 26 54 -2q119 -131 335 -131q121 0 192 54.5t71 148.5q0 85 -67 125.5t-239 60.5q-233 26 -331.5 106.5t-98.5 239.5zM266 551q0 -102 83.5 -152t289.5 -73q105 19 166 80.5t61 148.5 q0 103 -84 150t-305 71q-97 -20 -154 -80.5t-57 -144.5z" />
<glyph unicode="&#xa8;" horiz-adv-x="1024" d="M240 1309q0 44 29 73t73 29q43 0 71.5 -29t28.5 -73q0 -43 -28.5 -72t-71.5 -29q-44 0 -73 29t-29 72zM582 1309q0 44 28.5 73t71.5 29q44 0 73 -29t29 -73q0 -43 -29 -72t-73 -29q-43 0 -71.5 29t-28.5 72z" />
<glyph unicode="&#xa9;" horiz-adv-x="1568" d="M80 680q0 301 201 502q202 202 503 202q303 0 502 -202q203 -200 203 -502q0 -301 -203 -504q-201 -201 -502 -201q-299 0 -503 201q-201 204 -201 504zM199 680q0 -255 168 -426q169 -172 417 -172q247 0 416 172q170 173 170 426t-170 426q-169 172 -416 172 q-248 0 -417 -172q-168 -171 -168 -426zM516 561v238q0 133 69.5 202.5t200.5 69.5q158 0 234 -125q16 -25 -12 -41l-39 -26q-25 -15 -43 12q-53 74 -140 74q-149 0 -149 -179v-213q0 -178 149 -178q91 0 140 76q15 26 41 10l41 -24q27 -15 12 -43q-76 -125 -234 -125 q-131 0 -200.5 69.5t-69.5 202.5z" />
<glyph unicode="&#xaa;" horiz-adv-x="718" d="M53 733q0 113 74 175.5t209 62.5h160v10q0 99 -41.5 146t-128.5 47q-85 0 -150 -56q-28 -21 -49 6l-33 52q-21 27 8 49q104 78 236 78q148 0 226.5 -78.5t78.5 -229.5v-213q0 -146 -77.5 -222.5t-225.5 -76.5q-136 0 -211.5 65.5t-75.5 184.5zM201 729q0 -117 139 -117 q82 0 119 44t37 141v49h-142q-153 0 -153 -117z" />
<glyph unicode="&#xab;" horiz-adv-x="894" d="M78 481q-15 25 0 49l217 342q16 23 41 23h84q46 0 22 -43l-219 -346l219 -344q24 -43 -22 -43h-84q-25 0 -41 22zM459 481q-15 25 0 49l217 342q16 23 41 23h84q46 0 22 -43l-219 -346l219 -344q24 -43 -22 -43h-84q-25 0 -41 22z" />
<glyph unicode="&#xac;" d="M43 653v80q0 39 39 39h917q39 0 39 -39v-497q0 -39 -39 -39h-79q-39 0 -39 39v378h-799q-39 0 -39 39z" />
<glyph unicode="&#xad;" horiz-adv-x="679" d="M61 516v84q0 39 39 39h480q38 0 38 -39v-84q0 -39 -38 -39h-480q-39 0 -39 39z" />
<glyph unicode="&#xae;" horiz-adv-x="1568" d="M80 680q0 301 201 502q202 202 503 202q303 0 502 -202q203 -200 203 -502q0 -301 -203 -504q-201 -201 -502 -201q-299 0 -503 201q-201 204 -201 504zM199 680q0 -255 168 -426q169 -172 417 -172q247 0 416 172q170 173 170 426t-170 426q-169 172 -416 172 q-248 0 -417 -172q-168 -171 -168 -426zM553 334v692q0 31 31 31h207q272 0 272 -230q0 -180 -162 -223l162 -264q10 -17 4 -27t-25 -10h-73q-25 0 -37 21l-154 268h-104v-258q0 -31 -31 -31h-59q-31 0 -31 31zM674 698h117q149 0 149 127q0 125 -149 125h-117v-252z" />
<glyph unicode="&#xaf;" horiz-adv-x="1024" d="M244 1262v65q0 35 35 35h469q34 0 34 -35v-65q0 -35 -34 -35h-469q-35 0 -35 35z" />
<glyph unicode="&#xb0;" horiz-adv-x="731" d="M59 995q0 130 86 219q89 89 220 89q130 0 219 -89q88 -88 88 -219t-88 -219t-219 -88q-132 0 -220 88q-86 89 -86 219zM199 995q0 -75 47 -124.5t119 -49.5q73 0 120 49.5t47 124.5t-47 124.5t-120 49.5q-72 0 -119 -49.5t-47 -124.5z" />
<glyph unicode="&#xb1;" d="M59 39v80q0 39 39 39h887q39 0 39 -39v-80q0 -39 -39 -39h-887q-39 0 -39 39zM59 621v79q0 39 39 39h365v322q0 39 39 39h80q39 0 39 -39v-322h364q39 0 39 -39v-79q0 -39 -39 -39h-364v-320q0 -39 -39 -39h-80q-39 0 -39 39v320h-365q-39 0 -39 39z" />
<glyph unicode="&#xb2;" horiz-adv-x="675" d="M104 774v55q0 22 17 39l291 295q77 77 77 152q0 57 -36 89t-99 32q-87 0 -149 -86q-19 -22 -43 -7l-45 33q-24 18 -6 43q82 129 247 129q121 0 188.5 -61.5t67.5 -171.5q0 -113 -114 -230l-226 -225v-4h306q30 0 30 -31v-51q0 -31 -30 -31h-445q-31 0 -31 31z" />
<glyph unicode="&#xb3;" horiz-adv-x="675" d="M106 834q-18 22 3 43l36 38q22 22 43 -2q65 -71 170 -71q74 0 115 33.5t41 93.5q0 129 -180 129h-37q-31 0 -31 30v48q0 30 31 30h31q168 0 168 113q0 55 -38 86t-106 31q-91 0 -157 -72q-21 -24 -43 -2l-35 39q-21 21 -2 43q98 104 245 104q122 0 191.5 -58.5 t69.5 -162.5q0 -126 -113 -172v-4q131 -46 131 -188q0 -110 -71.5 -172t-200.5 -62q-169 0 -261 105z" />
<glyph unicode="&#xb4;" horiz-adv-x="1024" d="M438 1171q-7 12 4 29l154 248q16 22 41 22h106q23 0 29 -12t-8 -31l-172 -245q-16 -23 -43 -23h-84q-20 0 -27 12z" />
<glyph unicode="&#xb5;" horiz-adv-x="1021" d="M137 -289v1264q0 39 39 39h92q39 0 39 -39v-604q0 -248 209 -248q106 0 157.5 60.5t51.5 187.5v604q0 39 39 39h92q39 0 39 -39v-621q0 -186 -88 -282.5t-258 -96.5q-162 0 -238 101h-4v-365q0 -39 -39 -39h-92q-39 0 -39 39z" />
<glyph unicode="&#xb6;" horiz-adv-x="1167" d="M47 1018q0 214 117.5 315t365.5 101h449q33 0 33 -33v-1696q0 -33 -33 -33h-72q-33 0 -33 33v1587h-241v-1587q0 -33 -33 -33h-72q-32 0 -32 33v893q-232 7 -340.5 109t-108.5 311z" />
<glyph unicode="&#xb7;" horiz-adv-x="477" d="M125 639q0 49 32.5 82t80.5 33q49 0 81.5 -32.5t32.5 -82.5q0 -49 -32 -81t-82 -32q-48 0 -80.5 32t-32.5 81z" />
<glyph unicode="&#xb8;" horiz-adv-x="1024" d="M344 -274l18 38q12 27 41 11q52 -25 103 -25q74 0 74 45q0 26 -25 35.5t-82 9.5q-28 0 -22 31l30 156h97l-27 -119q149 -9 149 -123q0 -66 -49 -101.5t-141 -35.5q-89 0 -154 35q-24 15 -12 43z" />
<glyph unicode="&#xb9;" horiz-adv-x="675" d="M188 1313q-15 25 9 43l219 166q18 12 37 12h47q30 0 30 -31v-729q0 -31 -30 -31h-64q-30 0 -30 31v598l-148 -110q-26 -19 -41 8z" />
<glyph unicode="&#xba;" horiz-adv-x="753" d="M76 782v222q0 146 77.5 222.5t223.5 76.5t223.5 -76.5t77.5 -222.5v-222q0 -146 -77.5 -222.5t-223.5 -76.5t-223.5 76.5t-77.5 222.5zM223 797q0 -185 154 -185q153 0 153 185v192q0 185 -153 185q-154 0 -154 -185v-192z" />
<glyph unicode="&#xbb;" horiz-adv-x="894" d="M111 162l219 346l-219 344q-24 43 22 43h84q25 0 41 -23l217 -340q15 -24 0 -49l-217 -342q-16 -22 -41 -22h-84q-46 0 -22 43zM492 162l219 346l-219 344q-24 43 22 43h84q25 0 41 -23l217 -340q15 -24 0 -49l-217 -342q-16 -22 -41 -22h-84q-46 0 -22 43z" />
<glyph unicode="&#xbc;" horiz-adv-x="1630" d="M188 1057q-15 25 9 43l219 166q18 12 37 12h47q30 0 30 -31v-729q0 -31 -30 -31h-64q-30 0 -30 31v598l-148 -110q-26 -19 -41 8zM441.5 10q-5.5 10 4.5 27l807 1220q12 21 37 21h74q20 0 25.5 -10t-5.5 -27l-806 -1221q-11 -20 -37 -20h-74q-20 0 -25.5 10zM1026 205v67 q0 19 12 37l340 463q16 19 37 19h74q31 0 31 -31v-473h61q31 0 31 -31v-51q0 -31 -31 -31h-61v-143q0 -31 -31 -31h-64q-30 0 -30 31v143h-338q-31 0 -31 31zM1157 287h238v323h-4z" />
<glyph unicode="&#xbd;" horiz-adv-x="1630" d="M188 1057q-15 25 9 43l219 166q18 12 37 12h47q30 0 30 -31v-729q0 -31 -30 -31h-64q-30 0 -30 31v598l-148 -110q-26 -19 -41 8zM359.5 10q-5.5 10 5.5 27l806 1220q12 21 37 21h74q20 0 25.5 -10t-4.5 -27l-807 -1221q-11 -20 -37 -20h-74q-20 0 -25.5 10zM1063 31v55 q0 23 16 39l291 295q78 78 78 151q0 57 -36 89t-99 32q-88 0 -150 -86q-15 -21 -43 -6l-45 33q-24 18 -6 43q83 129 248 129q121 0 188.5 -62t67.5 -172q0 -111 -115 -229l-225 -225v-4h305q31 0 31 -31v-51q0 -31 -31 -31h-444q-31 0 -31 31z" />
<glyph unicode="&#xbe;" horiz-adv-x="1630" d="M106 578q-18 22 3 43l36 38q22 25 43 -2q65 -71 170 -71q74 0 115 33.5t41 93.5q0 129 -180 129h-37q-31 0 -31 30v48q0 30 31 30h31q168 0 168 113q0 55 -38 86t-106 31q-91 0 -157 -72q-21 -27 -43 -2l-35 39q-21 21 -2 43q98 104 245 104q122 0 191.5 -58.5 t69.5 -162.5q0 -126 -113 -172v-4q131 -46 131 -188q0 -110 -71.5 -172t-200.5 -62q-169 0 -261 105zM449.5 10q-5.5 10 5.5 27l807 1220q12 21 36 21h74q20 0 25.5 -10t-4.5 -27l-807 -1221q-11 -20 -37 -20h-74q-20 0 -25.5 10zM1028 205v67q0 19 12 37l340 463 q16 19 37 19h74q31 0 31 -31v-473h61q31 0 31 -31v-51q0 -31 -31 -31h-61v-143q0 -31 -31 -31h-64q-30 0 -30 31v143h-338q-31 0 -31 31zM1159 287h238v323h-4z" />
<glyph unicode="&#xbf;" horiz-adv-x="929" d="M47 340q0 120 49.5 200.5t171.5 151.5q96 57 134 108.5t38 125.5v22q0 39 39 39h82q39 0 39 -39v-35q0 -106 -46.5 -180t-158.5 -143q-97 -61 -134.5 -116t-37.5 -134q0 -98 64.5 -153.5t179.5 -55.5q178 0 281 158q21 35 53 10l63 -47q30 -21 10 -55 q-139 -222 -409 -222q-192 0 -305 99t-113 266zM403 1272q0 49 32.5 80.5t82.5 31.5q48 0 80.5 -31.5t32.5 -80.5t-32.5 -82t-80.5 -33q-50 0 -82.5 32.5t-32.5 82.5z" />
<glyph unicode="&#xc0;" horiz-adv-x="1202" d="M74 45l434 1282q11 33 47 33h125q35 0 47 -35l434 -1280q15 -45 -33 -45h-114q-34 0 -43 33l-80 248h-553l-80 -248q-9 -33 -43 -33h-109q-47 0 -32 45zM362.5 1792q5.5 12 28.5 12h107q25 0 41 -22l153 -248q11 -17 4.5 -29t-26.5 -12h-84q-27 0 -43 23l-172 245 q-14 19 -8.5 31zM391 442h449l-224 697h-4z" />
<glyph unicode="&#xc1;" horiz-adv-x="1202" d="M74 45l434 1282q11 33 47 33h125q35 0 47 -35l434 -1280q15 -45 -33 -45h-114q-34 0 -43 33l-80 248h-553l-80 -248q-9 -33 -43 -33h-109q-47 0 -32 45zM391 442h449l-224 697h-4zM536.5 1505q-6.5 12 4.5 29l153 248q16 22 41 22h107q23 0 28.5 -12t-8.5 -31l-172 -245 q-16 -23 -43 -23h-84q-20 0 -26.5 12z" />
<glyph unicode="&#xc2;" horiz-adv-x="1202" d="M74 45l434 1282q11 33 47 33h125q35 0 47 -35l434 -1280q15 -45 -33 -45h-114q-34 0 -43 33l-80 248h-553l-80 -248q-9 -33 -43 -33h-109q-47 0 -32 45zM350 1505q-6 12 6 31l170 246q16 22 41 22h95q24 0 40 -22l172 -246q12 -19 6.5 -31t-28.5 -12h-76q-27 0 -43 23 l-119 170l-118 -170q-16 -23 -41 -23h-76q-23 0 -29 12zM391 442h449l-224 697h-4z" />
<glyph unicode="&#xc3;" horiz-adv-x="1202" d="M74 45l434 1282q11 33 47 33h125q35 0 47 -35l434 -1280q15 -45 -33 -45h-114q-34 0 -43 33l-80 248h-553l-80 -248q-9 -33 -43 -33h-109q-47 0 -32 45zM319 1552q12 99 60.5 153t124.5 54q70 0 147 -65q46 -43 80 -43q53 0 68 75q6 29 32 29h54q31 0 28 -33 q-12 -99 -60 -152.5t-124 -53.5q-70 0 -147 65q-46 43 -80 43q-53 0 -68 -76q-6 -28 -33 -28h-53q-32 0 -29 32zM391 442h449l-224 697h-4z" />
<glyph unicode="&#xc4;" horiz-adv-x="1202" d="M74 45l434 1282q11 33 47 33h125q35 0 47 -35l434 -1280q15 -45 -33 -45h-114q-34 0 -43 33l-80 248h-553l-80 -248q-9 -33 -43 -33h-109q-47 0 -32 45zM344 1642q0 44 29 73.5t73 29.5q43 0 72 -29.5t29 -73.5q0 -43 -29 -71.5t-72 -28.5q-44 0 -73 28.5t-29 71.5z M391 442h449l-224 697h-4zM686 1642q0 44 28.5 73.5t71.5 29.5q44 0 73.5 -29.5t29.5 -73.5q0 -43 -29.5 -71.5t-73.5 -28.5q-43 0 -71.5 28.5t-28.5 71.5z" />
<glyph unicode="&#xc5;" horiz-adv-x="1202" d="M74 45l434 1282q11 33 47 33h125q35 0 47 -35l434 -1280q15 -45 -33 -45h-114q-34 0 -43 33l-80 248h-553l-80 -248q-9 -33 -43 -33h-109q-47 0 -32 45zM391 442h449l-224 697h-4zM449 1649q0 71 47 118q50 49 121 49t118 -49q49 -47 49 -118t-49 -121q-47 -47 -118 -47 t-121 47q-47 50 -47 121zM544 1648q0 -33 19 -53q20 -19 53 -19t52 19q20 20 20 53t-20 52q-19 20 -52 20t-53 -20q-19 -19 -19 -52z" />
<glyph unicode="&#xc6;" horiz-adv-x="1792" d="M31 13.5q-7 13.5 4 33.5l733 1284q16 29 51 29h852q39 0 39 -39v-84q0 -39 -39 -39h-629v-430h539q39 0 39 -39v-84q0 -39 -39 -39h-539v-444h629q39 0 39 -39v-84q0 -39 -39 -39h-774q-39 0 -39 39v231h-493l-136 -243q-15 -27 -45 -27h-123q-23 0 -30 13.5zM455 432 h403v731h-4z" />
<glyph unicode="&#xc7;" horiz-adv-x="1079" d="M115 467v426q0 239 122.5 365t354.5 126q303 0 428 -239q18 -35 -16 -53l-76 -43q-33 -20 -54 14q-89 160 -282 160q-293 0 -293 -353v-381q0 -352 293 -352q192 0 282 158q17 38 54 16l76 -43q33 -20 16 -53q-120 -225 -389 -240l-17 -67q150 -9 150 -123 q0 -66 -49.5 -101.5t-141.5 -35.5q-88 0 -153 35q-24 15 -12 43l18 38q12 27 41 11q52 -25 102 -25q74 0 74 45q0 26 -24.5 35.5t-81.5 9.5q-29 0 -23 31l21 106q-204 17 -312 142.5t-108 347.5z" />
<glyph unicode="&#xc8;" horiz-adv-x="1101" d="M162 39v1282q0 39 39 39h774q39 0 39 -39v-84q0 -39 -39 -39h-629v-430h539q39 0 39 -39v-84q0 -39 -39 -39h-539v-444h629q39 0 39 -39v-84q0 -39 -39 -39h-774q-39 0 -39 39zM333.5 1792q5.5 12 28.5 12h107q25 0 41 -22l154 -248q11 -17 4 -29t-27 -12h-84 q-27 0 -43 23l-172 245q-14 19 -8.5 31z" />
<glyph unicode="&#xc9;" horiz-adv-x="1101" d="M162 39v1282q0 39 39 39h774q39 0 39 -39v-84q0 -39 -39 -39h-629v-430h539q39 0 39 -39v-84q0 -39 -39 -39h-539v-444h629q39 0 39 -39v-84q0 -39 -39 -39h-774q-39 0 -39 39zM508 1505q-7 12 4 29l154 248q16 22 41 22h106q23 0 29 -12t-8 -31l-172 -245 q-16 -23 -44 -23h-83q-20 0 -27 12z" />
<glyph unicode="&#xca;" horiz-adv-x="1101" d="M162 39v1282q0 39 39 39h774q39 0 39 -39v-84q0 -39 -39 -39h-629v-430h539q39 0 39 -39v-84q0 -39 -39 -39h-539v-444h629q39 0 39 -39v-84q0 -39 -39 -39h-774q-39 0 -39 39zM321.5 1505q-5.5 12 6.5 31l170 246q16 22 41 22h94q25 0 41 -22l172 -246q12 -19 6 -31 t-29 -12h-75q-27 0 -43 23l-119 170l-119 -170q-16 -23 -41 -23h-76q-23 0 -28.5 12z" />
<glyph unicode="&#xcb;" horiz-adv-x="1101" d="M162 39v1282q0 39 39 39h774q39 0 39 -39v-84q0 -39 -39 -39h-629v-430h539q39 0 39 -39v-84q0 -39 -39 -39h-539v-444h629q39 0 39 -39v-84q0 -39 -39 -39h-774q-39 0 -39 39zM315 1642q0 44 29.5 73.5t73.5 29.5q43 0 71.5 -29.5t28.5 -73.5q0 -43 -28.5 -71.5 t-71.5 -28.5q-44 0 -73.5 28.5t-29.5 71.5zM657 1642q0 44 29 73.5t72 29.5q44 0 73 -29.5t29 -73.5q0 -43 -29 -71.5t-73 -28.5q-43 0 -72 28.5t-29 71.5z" />
<glyph unicode="&#xcc;" horiz-adv-x="507" d="M6 1792q6 12 29 12h106q25 0 41 -22l154 -248q11 -17 4 -29t-27 -12h-84q-27 0 -43 23l-172 245q-14 19 -8 31zM168 39v1282q0 39 39 39h106q39 0 39 -39v-1282q0 -39 -39 -39h-106q-39 0 -39 39z" />
<glyph unicode="&#xcd;" horiz-adv-x="507" d="M162 39v1282q0 39 39 39h106q39 0 39 -39v-1282q0 -39 -39 -39h-106q-39 0 -39 39zM174 1505q-7 12 4 29l154 248q16 22 41 22h106q23 0 29 -12t-8 -31l-172 -245q-16 -23 -43 -23h-84q-20 0 -27 12z" />
<glyph unicode="&#xce;" horiz-adv-x="507" d="M-6 1505q-6 12 6 31l170 246q16 22 41 22h94q25 0 41 -22l172 -246q12 -19 6.5 -31t-28.5 -12h-76q-27 0 -43 23l-119 170l-119 -170q-16 -23 -41 -23h-75q-23 0 -29 12zM168 39v1282q0 39 39 39h106q39 0 39 -39v-1282q0 -39 -39 -39h-106q-39 0 -39 39z" />
<glyph unicode="&#xcf;" horiz-adv-x="507" d="M-18 1642q0 44 29 73.5t73 29.5q43 0 71.5 -29.5t28.5 -73.5q0 -43 -28.5 -71.5t-71.5 -28.5q-44 0 -73 28.5t-29 71.5zM162 39v1282q0 39 39 39h106q39 0 39 -39v-1282q0 -39 -39 -39h-106q-39 0 -39 39zM324 1642q0 44 28.5 73.5t71.5 29.5q44 0 73 -29.5t29 -73.5 q0 -43 -29 -71.5t-73 -28.5q-43 0 -71.5 28.5t-28.5 71.5z" />
<glyph unicode="&#xd0;" horiz-adv-x="1232" d="M49 647v84q0 39 39 39h96v551q0 39 39 39h408q487 0 487 -467v-424q0 -469 -487 -469h-408q-39 0 -39 39v569h-96q-39 0 -39 39zM369 162h254q158 0 234.5 81.5t76.5 248.5v378q0 167 -76.5 247.5t-234.5 80.5h-254v-428h241q39 0 39 -39v-84q0 -39 -39 -39h-241v-446z " />
<glyph unicode="&#xd1;" horiz-adv-x="1275" d="M162 39v1282q0 39 39 39h133q30 0 45 -27l551 -993h4v981q0 39 39 39h102q39 0 39 -39v-1282q0 -39 -39 -39h-119q-30 0 -45 27l-565 1022h-4v-1010q0 -39 -39 -39h-102q-39 0 -39 39zM342 1552q12 99 60.5 153t123.5 54q71 0 148 -65q46 -43 80 -43q52 0 67 75 q6 29 33 29h53q32 0 29 -33q-12 -99 -60 -152.5t-124 -53.5q-71 0 -148 65q-46 43 -80 43q-52 0 -67 -76q-6 -28 -33 -28h-53q-32 0 -29 32z" />
<glyph unicode="&#xd2;" horiz-adv-x="1204" d="M115 467v426q0 239 124.5 365t362.5 126t363 -126t125 -365v-426q0 -239 -125 -365.5t-363 -126.5t-362.5 126.5t-124.5 365.5zM299 489q0 -352 303 -352t303 352v381q0 353 -303 353t-303 -353v-381zM348 1792q6 12 29 12h106q25 0 41 -22l154 -248q11 -17 4 -29 t-27 -12h-84q-27 0 -43 23l-172 245q-14 19 -8 31z" />
<glyph unicode="&#xd3;" horiz-adv-x="1204" d="M115 467v426q0 239 124.5 365t362.5 126t363 -126t125 -365v-426q0 -239 -125 -365.5t-363 -126.5t-362.5 126.5t-124.5 365.5zM299 489q0 -352 303 -352t303 352v381q0 353 -303 353t-303 -353v-381zM522 1505q-7 12 4 29l154 248q16 22 41 22h106q23 0 29 -12t-8 -31 l-172 -245q-16 -23 -43 -23h-84q-20 0 -27 12z" />
<glyph unicode="&#xd4;" horiz-adv-x="1204" d="M115 467v426q0 239 124.5 365t362.5 126t363 -126t125 -365v-426q0 -239 -125 -365.5t-363 -126.5t-362.5 126.5t-124.5 365.5zM299 489q0 -352 303 -352t303 352v381q0 353 -303 353t-303 -353v-381zM336 1505q-6 12 6 31l170 246q16 22 41 22h94q25 0 41 -22l172 -246 q12 -19 6.5 -31t-28.5 -12h-76q-27 0 -43 23l-119 170l-119 -170q-16 -23 -41 -23h-75q-23 0 -29 12z" />
<glyph unicode="&#xd5;" horiz-adv-x="1204" d="M115 467v426q0 239 124.5 365t362.5 126t363 -126t125 -365v-426q0 -239 -125 -365.5t-363 -126.5t-362.5 126.5t-124.5 365.5zM299 489q0 -352 303 -352t303 352v381q0 353 -303 353t-303 -353v-381zM305 1552q12 99 60.5 153t123.5 54q71 0 148 -65q46 -43 80 -43 q52 0 67 75q6 29 33 29h53q32 0 29 -33q-12 -99 -60 -152.5t-124 -53.5q-71 0 -148 65q-46 43 -80 43q-52 0 -67 -76q-6 -28 -33 -28h-53q-32 0 -29 32z" />
<glyph unicode="&#xd6;" horiz-adv-x="1204" d="M115 467v426q0 239 124.5 365t362.5 126t363 -126t125 -365v-426q0 -239 -125 -365.5t-363 -126.5t-362.5 126.5t-124.5 365.5zM299 489q0 -352 303 -352t303 352v381q0 353 -303 353t-303 -353v-381zM330 1642q0 44 29 73.5t73 29.5q43 0 71.5 -29.5t28.5 -73.5 q0 -43 -28.5 -71.5t-71.5 -28.5q-44 0 -73 28.5t-29 71.5zM672 1642q0 44 28.5 73.5t71.5 29.5q44 0 73 -29.5t29 -73.5q0 -43 -29 -71.5t-73 -28.5q-43 0 -71.5 28.5t-28.5 71.5z" />
<glyph unicode="&#xd7;" d="M123 178q-27 26 0 53l340 340l-340 340q-27 27 0 54l57 57q26 26 53 0l342 -340l340 340q27 27 54 0l57 -57q27 -27 0 -54l-340 -340l340 -340q26 -27 0 -53l-57 -57q-27 -27 -54 0l-340 340l-342 -340q-27 -27 -53 0z" />
<glyph unicode="&#xd8;" horiz-adv-x="1204" d="M125 467v426q0 239 124.5 365t362.5 126q198 0 320 -88l41 64q22 28 51 10l55 -37q33 -23 11 -51l-62 -92q72 -123 72 -297v-426q0 -239 -125 -365.5t-363 -126.5q-197 0 -319 88l-41 -63q-22 -28 -51 -10l-56 37q-32 23 -10 51l62 92q-72 123 -72 297zM309 489 q0 -54 10 -122h5l507 778q-75 78 -219 78q-303 0 -303 -353v-381zM393 215q75 -78 219 -78q303 0 303 352v381q0 55 -10 123h-4z" />
<glyph unicode="&#xd9;" horiz-adv-x="1204" d="M139 451v870q0 39 39 39h107q39 0 39 -39v-852q0 -170 68.5 -251t211.5 -81t212 81t69 251v852q0 39 39 39h102q39 0 39 -39v-870q0 -232 -118.5 -354t-344.5 -122t-344.5 122t-118.5 354zM348 1792q6 12 29 12h106q25 0 41 -22l154 -248q11 -17 4 -29t-27 -12h-84 q-27 0 -43 23l-172 245q-14 19 -8 31z" />
<glyph unicode="&#xda;" horiz-adv-x="1204" d="M139 451v870q0 39 39 39h107q39 0 39 -39v-852q0 -170 68.5 -251t211.5 -81t212 81t69 251v852q0 39 39 39h102q39 0 39 -39v-870q0 -232 -118.5 -354t-344.5 -122t-344.5 122t-118.5 354zM522 1505q-7 12 4 29l154 248q16 22 41 22h106q23 0 29 -12t-8 -31l-172 -245 q-16 -23 -43 -23h-84q-20 0 -27 12z" />
<glyph unicode="&#xdb;" horiz-adv-x="1204" d="M139 451v870q0 39 39 39h107q39 0 39 -39v-852q0 -170 68.5 -251t211.5 -81t212 81t69 251v852q0 39 39 39h102q39 0 39 -39v-870q0 -232 -118.5 -354t-344.5 -122t-344.5 122t-118.5 354zM336 1505q-6 12 6 31l170 246q16 22 41 22h94q25 0 41 -22l172 -246 q12 -19 6.5 -31t-28.5 -12h-76q-27 0 -43 23l-119 170l-119 -170q-16 -23 -41 -23h-75q-23 0 -29 12z" />
<glyph unicode="&#xdc;" horiz-adv-x="1204" d="M139 451v870q0 39 39 39h107q39 0 39 -39v-852q0 -170 68.5 -251t211.5 -81t212 81t69 251v852q0 39 39 39h102q39 0 39 -39v-870q0 -232 -118.5 -354t-344.5 -122t-344.5 122t-118.5 354zM330 1642q0 44 29 73.5t73 29.5q43 0 71.5 -29.5t28.5 -73.5q0 -43 -28.5 -71.5 t-71.5 -28.5q-44 0 -73 28.5t-29 71.5zM672 1642q0 44 28.5 73.5t71.5 29.5q44 0 73 -29.5t29 -73.5q0 -43 -29 -71.5t-73 -28.5q-43 0 -71.5 28.5t-28.5 71.5z" />
<glyph unicode="&#xdd;" horiz-adv-x="1085" d="M27 1346.5q7 13.5 30 13.5h133q31 0 46 -27l317 -567l317 567q15 27 45 27h125q23 0 30.5 -13.5t-3.5 -33.5l-426 -723v-551q0 -39 -39 -39h-106q-39 0 -39 39v553l-426 721q-11 20 -4 33.5zM469 1505q-7 12 4 29l154 248q16 22 41 22h106q23 0 29 -12t-8 -31l-172 -245 q-16 -23 -43 -23h-84q-20 0 -27 12z" />
<glyph unicode="&#xde;" horiz-adv-x="1118" d="M162 39v1282q0 39 39 39h106q39 0 39 -39v-203h236q248 0 365.5 -101.5t117.5 -316.5t-117.5 -316t-365.5 -101h-236v-244q0 -39 -39 -39h-106q-39 0 -39 39zM346 444h234q155 0 227 61.5t72 194.5t-72 194.5t-227 61.5h-234v-512z" />
<glyph unicode="&#xdf;" horiz-adv-x="1130" d="M137 39v1055q0 170 106 267t292 97q189 0 294 -85.5t105 -239.5q0 -91 -38 -153t-130 -124q-109 -71 -109 -141q0 -50 33 -77t123 -50q140 -37 201 -109t61 -200q0 -140 -94.5 -222t-255.5 -82q-195 0 -311 84q-31 22 -11 54l39 63q19 32 54 8q85 -61 213 -61 q94 0 145 40.5t51 115.5q0 64 -40.5 101.5t-139.5 63.5q-130 32 -184 92.5t-54 170.5q0 80 36.5 138t123.5 118q68 46 93.5 82t25.5 81q0 88 -59.5 136.5t-167.5 48.5q-112 0 -172 -56.5t-60 -162.5v-1053q0 -39 -39 -39h-92q-39 0 -39 39z" />
<glyph unicode="&#xe0;" horiz-adv-x="933" d="M78 291q0 148 94 228.5t270 80.5h222v25q0 138 -57 202t-177 64q-110 0 -203 -78q-32 -29 -55 4l-43 60q-21 31 6 55q130 106 309 106q191 0 290.5 -100.5t99.5 -296.5v-279q0 -189 -100 -288t-290 -99q-177 0 -271.5 82t-94.5 234zM221 1458q6 12 29 12h106q25 0 41 -22 l154 -248q11 -17 4 -29t-27 -12h-84q-27 0 -43 23l-172 245q-14 19 -8 31zM248 289q0 -166 196 -166q220 0 220 256v80h-201q-104 0 -159.5 -43t-55.5 -127z" />
<glyph unicode="&#xe1;" horiz-adv-x="933" d="M78 291q0 148 94 228.5t270 80.5h222v25q0 138 -57 202t-177 64q-110 0 -203 -78q-32 -29 -55 4l-43 60q-21 31 6 55q130 106 309 106q191 0 290.5 -100.5t99.5 -296.5v-279q0 -189 -100 -288t-290 -99q-177 0 -271.5 82t-94.5 234zM248 289q0 -166 196 -166 q220 0 220 256v80h-201q-104 0 -159.5 -43t-55.5 -127zM395 1171q-7 12 4 29l154 248q16 22 41 22h106q23 0 29 -12t-8 -31l-172 -245q-16 -23 -43 -23h-84q-20 0 -27 12z" />
<glyph unicode="&#xe2;" horiz-adv-x="933" d="M78 291q0 148 94 228.5t270 80.5h222v25q0 138 -57 202t-177 64q-110 0 -203 -78q-32 -29 -55 4l-43 60q-21 31 6 55q130 106 309 106q191 0 290.5 -100.5t99.5 -296.5v-279q0 -189 -100 -288t-290 -99q-177 0 -271.5 82t-94.5 234zM209 1171q-6 12 6 31l170 246 q16 22 41 22h94q25 0 41 -22l172 -246q12 -19 6.5 -31t-28.5 -12h-76q-27 0 -43 23l-119 170l-119 -170q-16 -23 -41 -23h-75q-23 0 -29 12zM248 289q0 -166 196 -166q220 0 220 256v80h-201q-104 0 -159.5 -43t-55.5 -127z" />
<glyph unicode="&#xe3;" horiz-adv-x="933" d="M78 291q0 148 94 228.5t270 80.5h222v25q0 138 -57 202t-177 64q-110 0 -203 -78q-32 -29 -55 4l-43 60q-21 31 6 55q130 106 309 106q191 0 290.5 -100.5t99.5 -296.5v-279q0 -189 -100 -288t-290 -99q-177 0 -271.5 82t-94.5 234zM178 1219q12 99 60 152.5t124 53.5 q71 0 148 -65q46 -43 80 -43q52 0 67 76q6 28 33 28h53q32 0 29 -32q-12 -99 -60.5 -153t-123.5 -54q-71 0 -148 65q-46 43 -80 43q-52 0 -67 -76q-6 -28 -33 -28h-53q-32 0 -29 33zM248 289q0 -166 196 -166q220 0 220 256v80h-201q-104 0 -159.5 -43t-55.5 -127z" />
<glyph unicode="&#xe4;" horiz-adv-x="933" d="M78 291q0 148 94 228.5t270 80.5h222v25q0 138 -57 202t-177 64q-110 0 -203 -78q-32 -29 -55 4l-43 60q-21 31 6 55q130 106 309 106q191 0 290.5 -100.5t99.5 -296.5v-279q0 -189 -100 -288t-290 -99q-177 0 -271.5 82t-94.5 234zM203 1309q0 44 29 73t73 29 q43 0 72 -29t29 -73q0 -43 -29 -72t-72 -29q-44 0 -73 29t-29 72zM248 289q0 -166 196 -166q220 0 220 256v80h-201q-104 0 -159.5 -43t-55.5 -127zM545 1309q0 44 28.5 73t71.5 29q44 0 73.5 -29t29.5 -73q0 -43 -29.5 -72t-73.5 -29q-43 0 -71.5 29t-28.5 72z" />
<glyph unicode="&#xe5;" horiz-adv-x="933" d="M78 291q0 148 94 228.5t270 80.5h222v25q0 138 -57 202t-177 64q-110 0 -203 -78q-32 -29 -55 4l-43 60q-21 31 6 55q130 106 309 106q191 0 290.5 -100.5t99.5 -296.5v-279q0 -189 -100 -288t-290 -99q-177 0 -271.5 82t-94.5 234zM248 289q0 -166 196 -166 q220 0 220 256v80h-201q-104 0 -159.5 -43t-55.5 -127zM307 1315.5q0 71.5 47 118.5q50 50 121.5 50t118.5 -50q50 -47 50 -118.5t-50 -121.5q-47 -47 -118.5 -47t-121.5 47q-47 50 -47 121.5zM403 1314.5q0 -32.5 19 -52.5q20 -19 52.5 -19t51.5 19q20 20 20 52.5t-20 51.5 q-19 20 -51.5 20t-52.5 -20q-19 -19 -19 -51.5z" />
<glyph unicode="&#xe6;" horiz-adv-x="1505" d="M78 289q0 148 93.5 227.5t270.5 79.5h222v29q0 138 -57 202t-177 64q-112 0 -205 -78q-30 -30 -53 4l-43 60q-21 31 6 55q130 106 299 106q234 0 314 -170h4q77 170 313 170q171 0 264.5 -100.5t93.5 -286.5v-157q0 -39 -39 -39h-550v-66q0 -139 60 -202.5t189 -63.5 q114 0 207 84q30 30 56 -4l40 -51q22 -32 -2 -56q-121 -121 -297 -121q-251 0 -333 175h-4q-76 -175 -324 -175q-161 0 -254.5 84t-93.5 230zM248 287q0 -164 196 -164q220 0 220 256v76h-201q-215 0 -215 -168zM834 596h428v37q0 133 -52 195.5t-161 62.5 q-111 0 -163 -62.5t-52 -195.5v-37z" />
<glyph unicode="&#xe7;" horiz-adv-x="829" d="M100 373v270q0 194 99 294.5t286 100.5q173 0 271 -88q28 -25 4 -55l-43 -53q-25 -28 -55 -4q-65 53 -166 53q-116 0 -171 -65t-55 -201v-236q0 -266 234 -266q108 0 178 70q31 31 55 -3l41 -51q22 -31 -2 -55q-109 -103 -264 -109l-14 -67q149 -9 149 -123 q0 -66 -49 -101.5t-141 -35.5q-89 0 -154 35q-24 15 -12 43l18 38q12 27 41 11q52 -25 103 -25q73 0 73 45q0 26 -24.5 35.5t-81.5 9.5q-29 0 -23 31l21 109q-154 19 -236 119.5t-82 273.5z" />
<glyph unicode="&#xe8;" horiz-adv-x="940" d="M100 373v278q0 189 97 288t282 99t282 -99t97 -288v-164q0 -38 -39 -38h-549v-60q0 -139 59.5 -202.5t188.5 -63.5q114 0 207 84q29 29 55 -4l41 -51q22 -32 -2 -56q-127 -121 -307 -121q-412 0 -412 398zM229.5 1458q5.5 12 28.5 12h107q25 0 41 -22l153 -248 q11 -17 4.5 -29t-26.5 -12h-84q-27 0 -43 23l-172 245q-14 19 -8.5 31zM270 590h426v43q0 133 -52 195.5t-161 62.5t-161 -62.5t-52 -195.5v-43z" />
<glyph unicode="&#xe9;" horiz-adv-x="940" d="M100 373v278q0 189 97 288t282 99t282 -99t97 -288v-164q0 -38 -39 -38h-549v-60q0 -139 59.5 -202.5t188.5 -63.5q114 0 207 84q29 29 55 -4l41 -51q22 -32 -2 -56q-127 -121 -307 -121q-412 0 -412 398zM270 590h426v43q0 133 -52 195.5t-161 62.5t-161 -62.5 t-52 -195.5v-43zM403.5 1171q-6.5 12 4.5 29l153 248q16 22 41 22h107q23 0 28.5 -12t-8.5 -31l-172 -245q-16 -23 -43 -23h-84q-20 0 -26.5 12z" />
<glyph unicode="&#xea;" horiz-adv-x="940" d="M100 373v278q0 189 97 288t282 99t282 -99t97 -288v-164q0 -38 -39 -38h-549v-60q0 -139 59.5 -202.5t188.5 -63.5q114 0 207 84q29 29 55 -4l41 -51q22 -32 -2 -56q-127 -121 -307 -121q-412 0 -412 398zM217 1171q-6 12 6 31l170 246q16 22 41 22h94q25 0 41 -22 l172 -246q12 -19 6.5 -31t-28.5 -12h-76q-27 0 -43 23l-119 170l-119 -170q-16 -23 -40 -23h-76q-23 0 -29 12zM270 590h426v43q0 133 -52 195.5t-161 62.5t-161 -62.5t-52 -195.5v-43z" />
<glyph unicode="&#xeb;" horiz-adv-x="940" d="M100 373v278q0 189 97 288t282 99t282 -99t97 -288v-164q0 -38 -39 -38h-549v-60q0 -139 59.5 -202.5t188.5 -63.5q114 0 207 84q29 29 55 -4l41 -51q22 -32 -2 -56q-127 -121 -307 -121q-412 0 -412 398zM211 1309q0 44 29 73t73 29q43 0 72 -29t29 -73q0 -43 -29 -72 t-72 -29q-44 0 -73 29t-29 72zM270 590h426v43q0 133 -52 195.5t-161 62.5t-161 -62.5t-52 -195.5v-43zM553 1309q0 44 28.5 73t71.5 29q44 0 73.5 -29t29.5 -73q0 -43 -29.5 -72t-73.5 -29q-43 0 -71.5 29t-28.5 72z" />
<glyph unicode="&#xec;" horiz-adv-x="444" d="M-26.5 1458q5.5 12 28.5 12h107q25 0 41 -22l153 -248q11 -17 4.5 -29t-26.5 -12h-84q-27 0 -43 23l-172 245q-14 19 -8.5 31zM143 39v936q0 39 39 39h92q39 0 39 -39v-936q0 -39 -39 -39h-92q-39 0 -39 39z" />
<glyph unicode="&#xed;" horiz-adv-x="444" d="M139 39v936q0 39 39 39h92q39 0 39 -39v-936q0 -39 -39 -39h-92q-39 0 -39 39zM143 1171q-7 12 4 29l154 248q16 22 41 22h107q23 0 28.5 -12t-8.5 -31l-172 -245q-16 -23 -43 -23h-84q-20 0 -27 12z" />
<glyph unicode="&#xee;" horiz-adv-x="444" d="M-39 1171q-6 12 6 31l170 246q16 22 41 22h94q25 0 41 -22l172 -246q12 -19 6.5 -31t-28.5 -12h-76q-27 0 -43 23l-119 170l-119 -170q-16 -23 -40 -23h-76q-23 0 -29 12zM143 39v936q0 39 39 39h92q39 0 39 -39v-936q0 -39 -39 -39h-92q-39 0 -39 39z" />
<glyph unicode="&#xef;" horiz-adv-x="444" d="M-51 1309q0 44 29 73t73 29q43 0 72 -29t29 -73q0 -43 -29 -72t-72 -29q-44 0 -73 29t-29 72zM137 39v936q0 39 39 39h92q39 0 39 -39v-936q0 -39 -39 -39h-92q-39 0 -39 39zM291 1309q0 44 28.5 73t71.5 29q44 0 73.5 -29t29.5 -73q0 -43 -29.5 -72t-73.5 -29 q-43 0 -71.5 29t-28.5 72z" />
<glyph unicode="&#xf0;" horiz-adv-x="989" d="M100 362v271q0 188 92.5 286.5t266.5 98.5q135 0 213 -84h4q-35 168 -131 254l-127 -98q-26 -23 -47 6l-43 55q-21 26 6 47l84 66q-83 31 -182 43q-41 3 -35 43l12 73q6 36 43 33q178 -21 299 -84l86 66q26 23 47 -6l43 -56q21 -26 -6 -47l-53 -41q200 -188 200 -633 v-293q0 -189 -99 -288t-288 -99t-287 99t-98 288zM270 379q0 -131 52.5 -193.5t162.5 -62.5q112 0 164.5 62.5t52.5 193.5v235q0 256 -217 256q-110 0 -162.5 -62.5t-52.5 -193.5v-235z" />
<glyph unicode="&#xf1;" horiz-adv-x="1011" d="M127 39v620q0 185 97.5 282t281.5 97t281.5 -97t97.5 -282v-620q0 -39 -39 -39h-92q-39 0 -39 39v602q0 129 -50 189.5t-159 60.5t-159 -60.5t-50 -189.5v-602q0 -39 -39 -39h-92q-39 0 -39 39zM209 1219q12 99 60 152.5t124 53.5q71 0 148 -65q46 -43 80 -43q52 0 67 76 q6 28 33 28h53q32 0 29 -32q-12 -99 -60.5 -153t-124.5 -54q-70 0 -147 65q-46 43 -80 43q-52 0 -67 -76q-6 -28 -33 -28h-53q-32 0 -29 33z" />
<glyph unicode="&#xf2;" horiz-adv-x="972" d="M100 360v291q0 189 98 288t287 99t288 -99t99 -288v-291q0 -189 -99 -287t-288 -98q-187 0 -286 98.5t-99 286.5zM231.5 1458q5.5 12 28.5 12h107q25 0 41 -22l153 -248q11 -17 4.5 -29t-26.5 -12h-84q-27 0 -43 23l-172 245q-14 19 -8.5 31zM270 379q0 -131 52.5 -193.5 t162.5 -62.5q112 0 164.5 62.5t52.5 193.5v254q0 134 -52.5 196t-164.5 62q-111 0 -163 -62.5t-52 -195.5v-254z" />
<glyph unicode="&#xf3;" horiz-adv-x="972" d="M100 360v291q0 189 98 288t287 99t288 -99t99 -288v-291q0 -189 -99 -287t-288 -98q-187 0 -286 98.5t-99 286.5zM270 379q0 -131 52.5 -193.5t162.5 -62.5q112 0 164.5 62.5t52.5 193.5v254q0 134 -52.5 196t-164.5 62q-111 0 -163 -62.5t-52 -195.5v-254zM405.5 1171 q-6.5 12 4.5 29l153 248q16 22 41 22h107q23 0 28.5 -12t-8.5 -31l-172 -245q-16 -23 -43 -23h-84q-20 0 -26.5 12z" />
<glyph unicode="&#xf4;" horiz-adv-x="972" d="M100 360v291q0 189 98 288t287 99t288 -99t99 -288v-291q0 -189 -99 -287t-288 -98q-187 0 -286 98.5t-99 286.5zM219 1171q-6 12 6 31l170 246q16 22 41 22h94q25 0 41 -22l172 -246q12 -19 6.5 -31t-28.5 -12h-76q-27 0 -43 23l-119 170l-118 -170q-16 -23 -41 -23h-76 q-23 0 -29 12zM270 379q0 -131 52.5 -193.5t162.5 -62.5q112 0 164.5 62.5t52.5 193.5v254q0 134 -52.5 196t-164.5 62q-111 0 -163 -62.5t-52 -195.5v-254z" />
<glyph unicode="&#xf5;" horiz-adv-x="972" d="M100 360v291q0 189 98 288t287 99t288 -99t99 -288v-291q0 -189 -99 -287t-288 -98q-187 0 -286 98.5t-99 286.5zM188 1219q12 99 60.5 152.5t124.5 53.5q70 0 147 -65q46 -43 80 -43q53 0 68 76q6 28 32 28h54q17 0 23.5 -7.5t4.5 -24.5q-12 -99 -60.5 -153t-123.5 -54 q-70 0 -147 65q-46 43 -80 43q-53 0 -68 -76q-6 -28 -33 -28h-53q-32 0 -29 33zM270 379q0 -131 52.5 -193.5t162.5 -62.5q112 0 164.5 62.5t52.5 193.5v254q0 134 -52.5 196t-164.5 62q-111 0 -163 -62.5t-52 -195.5v-254z" />
<glyph unicode="&#xf6;" horiz-adv-x="972" d="M100 360v291q0 189 98 288t287 99t288 -99t99 -288v-291q0 -189 -99 -287t-288 -98q-187 0 -286 98.5t-99 286.5zM213 1309q0 44 29 73t73 29q43 0 72 -29t29 -73q0 -43 -29 -72t-72 -29q-44 0 -73 29t-29 72zM270 379q0 -131 52.5 -193.5t162.5 -62.5q112 0 164.5 62.5 t52.5 193.5v254q0 134 -52.5 196t-164.5 62q-111 0 -163 -62.5t-52 -195.5v-254zM555 1309q0 44 28.5 73t71.5 29q44 0 73.5 -29t29.5 -73q0 -43 -29.5 -72t-73.5 -29q-43 0 -71.5 29t-28.5 72z" />
<glyph unicode="&#xf7;" d="M43 530v80q0 39 39 39h917q39 0 39 -39v-80q0 -38 -39 -38h-917q-39 0 -39 38zM432 164q0 47 31 78.5t78 31.5q49 0 79.5 -31t30.5 -79t-30.5 -79.5t-79.5 -31.5q-47 0 -78 32t-31 79zM432 979q0 47 31 79t78 32q49 0 79.5 -31.5t30.5 -79.5t-30.5 -79.5t-79.5 -31.5 q-47 0 -78 32t-31 79z" />
<glyph unicode="&#xf8;" horiz-adv-x="972" d="M111 360v291q0 189 98 288t287 99q142 0 237 -59l25 37q21 27 49 8l57 -41q28 -22 10 -49l-40 -62q49 -85 49 -221v-291q0 -189 -99 -287t-288 -98q-139 0 -236 60l-24 -37q-21 -27 -50 -8l-57 41q-28 22 -10 49l41 59q-49 88 -49 221zM281 379q0 -43 2 -53h4l356 520 q-51 45 -147 45q-111 0 -163 -62.5t-52 -195.5v-254zM350 168q51 -45 146 -45q112 0 164.5 62.5t52.5 193.5v254q0 45 -2 55h-4z" />
<glyph unicode="&#xf9;" horiz-adv-x="999" d="M127 348v627q0 39 39 39h92q39 0 39 -39v-613q0 -124 49.5 -181.5t155.5 -57.5t155.5 57.5t49.5 181.5v613q0 39 38 39h89q38 0 38 -39v-627q0 -183 -94.5 -278t-277.5 -95t-278 95t-95 278zM245.5 1458q5.5 12 28.5 12h107q25 0 41 -22l153 -248q11 -17 4.5 -29 t-26.5 -12h-84q-27 0 -43 23l-172 245q-14 19 -8.5 31z" />
<glyph unicode="&#xfa;" horiz-adv-x="999" d="M127 348v627q0 39 39 39h92q39 0 39 -39v-613q0 -124 49.5 -181.5t155.5 -57.5t155.5 57.5t49.5 181.5v613q0 39 38 39h89q38 0 38 -39v-627q0 -183 -94.5 -278t-277.5 -95t-278 95t-95 278zM419.5 1171q-6.5 12 4.5 29l154 248q16 22 40 22h107q23 0 28.5 -12t-8.5 -31 l-172 -245q-16 -23 -43 -23h-84q-20 0 -26.5 12z" />
<glyph unicode="&#xfb;" horiz-adv-x="999" d="M127 348v627q0 39 39 39h92q39 0 39 -39v-613q0 -124 49.5 -181.5t155.5 -57.5t155.5 57.5t49.5 181.5v613q0 39 38 39h89q38 0 38 -39v-627q0 -183 -94.5 -278t-277.5 -95t-278 95t-95 278zM233.5 1171q-5.5 12 6.5 31l170 246q16 22 41 22h94q25 0 41 -22l172 -246 q12 -19 6 -31t-29 -12h-76q-27 0 -43 23l-118 170l-119 -170q-16 -23 -41 -23h-76q-23 0 -28.5 12z" />
<glyph unicode="&#xfc;" horiz-adv-x="999" d="M127 348v627q0 39 39 39h92q39 0 39 -39v-613q0 -124 49.5 -181.5t155.5 -57.5t155.5 57.5t49.5 181.5v613q0 39 38 39h89q38 0 38 -39v-627q0 -183 -94.5 -278t-277.5 -95t-278 95t-95 278zM227 1309q0 44 29.5 73t73.5 29q43 0 71.5 -29t28.5 -73q0 -43 -28.5 -72 t-71.5 -29q-44 0 -73.5 29t-29.5 72zM569 1309q0 44 29 73t72 29q44 0 73 -29t29 -73q0 -43 -29 -72t-73 -29q-43 0 -72 29t-29 72z" />
<glyph unicode="&#xfd;" horiz-adv-x="1021" d="M127 387v588q0 39 39 39h92q39 0 39 -39v-572q0 -127 51.5 -187t157.5 -60q209 0 209 247v572q0 39 39 39h92q39 0 39 -39v-965q0 -170 -102.5 -266t-282.5 -96q-205 0 -332 112q-28 25 -6 56l39 55q21 35 53 6q101 -82 235 -82q110 0 168 59t58 169v86h-4 q-76 -101 -238 -101q-170 0 -258 96.5t-88 282.5zM426 1171q-7 12 4 29l154 248q16 22 41 22h106q23 0 29 -12t-8 -31l-172 -245q-16 -23 -43 -23h-84q-20 0 -27 12z" />
<glyph unicode="&#xfe;" horiz-adv-x="1009" d="M137 -289v1684q0 39 39 39h92q39 0 39 -39v-459h4q77 102 240 102q174 0 266 -98.5t92 -286.5v-291q0 -189 -92 -288t-266 -99q-163 0 -240 103h-4v-367q0 -39 -39 -39h-92q-39 0 -39 39zM307 381q0 -258 217 -258q111 0 163 62.5t52 195.5v254q0 131 -52.5 193.5 t-162.5 62.5q-217 0 -217 -256v-254z" />
<glyph unicode="&#xff;" horiz-adv-x="1021" d="M127 387v588q0 39 39 39h92q39 0 39 -39v-572q0 -127 51.5 -187t157.5 -60q209 0 209 247v572q0 39 39 39h92q39 0 39 -39v-965q0 -170 -102.5 -266t-282.5 -96q-205 0 -332 112q-28 25 -6 56l39 55q21 35 53 6q101 -82 235 -82q110 0 168 59t58 169v86h-4 q-76 -101 -238 -101q-170 0 -258 96.5t-88 282.5zM233 1309q0 44 29.5 73t73.5 29q43 0 71.5 -29t28.5 -73q0 -43 -28.5 -72t-71.5 -29q-44 0 -73.5 29t-29.5 72zM575 1309q0 44 29 73t72 29q44 0 73 -29t29 -73q0 -43 -29 -72t-73 -29q-43 0 -72 29t-29 72z" />
<glyph unicode="&#x152;" horiz-adv-x="1806" d="M115 469v424q0 467 487 467h1075q39 0 39 -39v-84q0 -39 -39 -39h-628v-430h538q39 0 39 -39v-84q0 -39 -39 -39h-538v-444h628q39 0 39 -39v-84q0 -39 -39 -39h-1075q-487 0 -487 469zM299 492q0 -167 76.5 -248.5t234.5 -81.5h254v1036h-254q-158 0 -234.5 -80.5 t-76.5 -247.5v-378z" />
<glyph unicode="&#x153;" horiz-adv-x="1542" d="M100 360v291q0 189 95.5 288t275.5 99q237 0 313 -168h4q79 168 314 168q172 0 265 -100.5t93 -286.5v-164q0 -38 -39 -38h-549v-60q0 -139 59.5 -202.5t188.5 -63.5q114 0 207 84q29 29 55 -4l41 -51q22 -32 -2 -56q-121 -121 -297 -121q-249 0 -331 172h-5 q-79 -172 -317 -172q-180 0 -275.5 99.5t-95.5 285.5zM270 379q0 -131 52.5 -193.5t162.5 -62.5q112 0 164.5 62.5t52.5 193.5v254q0 134 -52.5 196t-164.5 62q-111 0 -163 -62.5t-52 -195.5v-254zM872 590h426v43q0 133 -52 195.5t-161 62.5t-161 -62.5t-52 -195.5v-43z " />
<glyph unicode="&#x178;" horiz-adv-x="1085" d="M27 1346.5q7 13.5 30 13.5h133q31 0 46 -27l317 -567l317 567q15 27 45 27h125q23 0 30.5 -13.5t-3.5 -33.5l-426 -723v-551q0 -39 -39 -39h-106q-39 0 -39 39v553l-426 721q-11 20 -4 33.5zM276 1642q0 44 29.5 73.5t73.5 29.5q43 0 71.5 -29.5t28.5 -73.5 q0 -43 -28.5 -71.5t-71.5 -28.5q-44 0 -73.5 28.5t-29.5 71.5zM618 1642q0 44 29 73.5t72 29.5q44 0 73 -29.5t29 -73.5q0 -43 -29 -71.5t-73 -28.5q-43 0 -72 28.5t-29 71.5z" />
<glyph unicode="&#x2c6;" horiz-adv-x="1024" d="M254 1171q-6 12 6 31l170 246q16 22 41 22h94q25 0 41 -22l172 -246q12 -19 6.5 -31t-28.5 -12h-76q-27 0 -43 23l-119 170l-119 -170q-16 -23 -41 -23h-75q-23 0 -29 12z" />
<glyph unicode="&#x2dc;" horiz-adv-x="1024" d="M219 1219q12 99 60 152.5t124 53.5q71 0 148 -65q46 -43 80 -43q52 0 67 76q6 28 33 28h53q32 0 29 -32q-12 -99 -60.5 -153t-123.5 -54q-71 0 -148 65q-46 43 -80 43q-52 0 -67 -76q-6 -28 -33 -28h-53q-32 0 -29 33z" />
<glyph unicode="&#x2000;" horiz-adv-x="908" />
<glyph unicode="&#x2001;" horiz-adv-x="1816" />
<glyph unicode="&#x2002;" horiz-adv-x="908" />
<glyph unicode="&#x2003;" horiz-adv-x="1816" />
<glyph unicode="&#x2004;" horiz-adv-x="605" />
<glyph unicode="&#x2005;" horiz-adv-x="454" />
<glyph unicode="&#x2006;" horiz-adv-x="302" />
<glyph unicode="&#x2007;" horiz-adv-x="302" />
<glyph unicode="&#x2008;" horiz-adv-x="227" />
<glyph unicode="&#x2009;" horiz-adv-x="363" />
<glyph unicode="&#x200a;" horiz-adv-x="100" />
<glyph unicode="&#x2010;" horiz-adv-x="679" d="M61 516v84q0 39 39 39h480q38 0 38 -39v-84q0 -39 -38 -39h-480q-39 0 -39 39z" />
<glyph unicode="&#x2011;" horiz-adv-x="679" d="M61 516v84q0 39 39 39h480q38 0 38 -39v-84q0 -39 -38 -39h-480q-39 0 -39 39z" />
<glyph unicode="&#x2012;" horiz-adv-x="679" d="M61 516v84q0 39 39 39h480q38 0 38 -39v-84q0 -39 -38 -39h-480q-39 0 -39 39z" />
<glyph unicode="&#x2013;" horiz-adv-x="1024" d="M61 524v68q0 35 35 35h832q35 0 35 -35v-68q0 -35 -35 -35h-832q-35 0 -35 35z" />
<glyph unicode="&#x2014;" horiz-adv-x="1843" d="M61 524v68q0 35 35 35h1651q35 0 35 -35v-68q0 -35 -35 -35h-1651q-35 0 -35 35z" />
<glyph unicode="&#x2018;" horiz-adv-x="477" d="M125 1058v11q0 175 151 305q22 15 39 -2l29 -29q16 -16 -2 -36q-67 -67 -76 -156q86 -18 86 -104q6 -63 -52 -92q-54 -26 -109 -3q-66 28 -66 106z" />
<glyph unicode="&#x2019;" horiz-adv-x="477" d="M135 1278q-6 63 52 91q54 27 109 3q66 -28 66 -106v-11q0 -175 -151 -305q-22 -15 -39 2l-29 29q-19 19 2 37q67 67 76 156q-86 18 -86 104z" />
<glyph unicode="&#x201a;" horiz-adv-x="477" d="M135 96q-6 63 52 92q54 26 109 3q66 -28 66 -106v-11q0 -175 -151 -305q-22 -15 -39 2l-29 28q-19 16 2 37q67 67 76 156q-86 18 -86 104z" />
<glyph unicode="&#x201c;" horiz-adv-x="839" d="M125 1058v11q0 175 151 305q22 15 39 -2l29 -29q16 -16 -2 -36q-67 -67 -76 -156q86 -18 86 -104q6 -63 -52 -92q-54 -26 -109 -3q-66 28 -66 106zM487 1057v12q0 174 152 305q22 15 39 -2l29 -29q19 -15 -2 -36q-67 -67 -76 -156q86 -18 86 -104q5 -63 -52 -91 q-53 -27 -109 -4q-66 27 -67 105z" />
<glyph unicode="&#x201d;" horiz-adv-x="839" d="M135 1278q-6 63 52 91q54 27 109 3q66 -28 66 -106v-11q0 -175 -151 -305q-22 -15 -39 2l-29 29q-19 19 2 37q67 67 76 156q-86 18 -86 104zM498 1278q-6 63 52 91q54 27 109 3q66 -28 66 -106v-11q0 -174 -152 -305q-21 -15 -38 2l-29 29q-16 19 2 37q67 67 76 156 q-86 18 -86 104z" />
<glyph unicode="&#x201e;" horiz-adv-x="839" d="M135 96q-6 63 52 92q54 26 109 3q66 -28 66 -106v-11q0 -175 -151 -305q-22 -15 -39 2l-29 28q-19 16 2 37q67 67 76 156q-86 18 -86 104zM498 96q-6 63 52 92q54 26 109 3q66 -28 66 -106v-11q0 -174 -152 -305q-21 -15 -38 2l-29 28q-16 16 2 37q67 67 76 156 q-86 18 -86 104z" />
<glyph unicode="&#x2022;" horiz-adv-x="1024" d="M252 598q0 110 76 186t184 76t184 -76t76 -186q0 -108 -76 -184t-184 -76t-184 76t-76 184z" />
<glyph unicode="&#x2026;" horiz-adv-x="1843" d="M227 88q0 49 32.5 82t80.5 33q50 0 82.5 -32.5t32.5 -82.5q0 -49 -32.5 -81t-82.5 -32q-48 0 -80.5 32t-32.5 81zM809 88q0 49 32.5 82t80.5 33q49 0 81.5 -32.5t32.5 -82.5q0 -49 -32 -81t-82 -32q-48 0 -80.5 32t-32.5 81zM1389 88q0 49 32.5 82t79.5 33q49 0 82 -32.5 t33 -82.5q0 -49 -32.5 -81t-82.5 -32q-48 0 -80 32t-32 81z" />
<glyph unicode="&#x202f;" horiz-adv-x="363" />
<glyph unicode="&#x2039;" horiz-adv-x="514" d="M78 481q-15 25 0 49l217 342q16 23 41 23h84q46 0 22 -43l-219 -346l219 -344q24 -43 -22 -43h-84q-25 0 -41 22z" />
<glyph unicode="&#x203a;" horiz-adv-x="514" d="M111 162l219 346l-219 344q-24 43 22 43h84q25 0 41 -23l217 -340q15 -24 0 -49l-217 -342q-16 -22 -41 -22h-84q-46 0 -22 43z" />
<glyph unicode="&#x205f;" horiz-adv-x="454" />
<glyph unicode="&#x20ac;" d="M70 465v72q0 34 34 34h68v146h-68q-34 0 -34 35v71q0 35 34 35h68v4q0 211 112.5 326t319.5 115q271 0 395 -201q18 -34 -14 -53l-70 -43q-36 -19 -53 14q-83 127 -256 127q-255 0 -258 -289h402q36 0 30 -39l-16 -71q-9 -31 -39 -31h-377v-146h340q37 0 31 -39l-17 -71 q-6 -31 -36 -31h-318v-4q0 -295 258 -295q173 0 256 127q17 33 53 14l70 -43q32 -19 14 -53q-124 -201 -395 -201q-207 0 -319.5 115t-112.5 326v14h-68q-34 0 -34 35z" />
<glyph unicode="&#x2122;" horiz-adv-x="1574" d="M31 1282v47q0 31 30 31h465q31 0 31 -31v-47q0 -31 -31 -31h-172v-585q0 -31 -30 -31h-62q-31 0 -31 31v585h-170q-30 0 -30 31zM684 666v663q0 31 31 31h123q27 0 36 -27l199 -518h4l199 518q9 27 37 27h123q30 0 30 -31v-663q0 -31 -30 -31h-62q-31 0 -31 31v540h-4 l-211 -547q-9 -24 -36 -24h-39q-28 0 -37 24l-209 545h-4v-538q0 -31 -31 -31h-57q-31 0 -31 31z" />
<glyph unicode="&#x25fc;" horiz-adv-x="1013" d="M0 0v1014h1014v-1014h-1014z" />
</font>
</defs>
</svg>
